<svg width="249" height="249" viewBox="0 0 249 249" fill="none" xmlns="http://www.w3.org/2000/svg">
<path d="M195.426 192.355C190.54 197.391 186.168 200.352 182.82 202.587C150.174 224.385 112.856 218.102 101.319 215.955C82.7038 212.49 66.9903 210.046 53.4897 197.849C22.8122 170.133 24.3042 112.315 47.7456 76.4996C50.5251 72.2529 73.9311 37.5581 111.33 32.6693C112.244 32.5497 112.927 32.4816 113.525 32.4183C119.31 31.8058 155.162 28.5728 184.395 53.0646C188.58 56.5704 195.314 62.8941 201.559 72.5388C224.393 107.804 224.465 162.422 195.426 192.355Z" fill="url(#paint0_linear_84_127)"/>
<path d="M102.99 212.195C102.99 212.195 78.3361 143.189 39.2574 108.387C36.6305 106.047 32.4568 107.525 31.9079 110.999C28.2371 134.233 23.9824 203.943 102.99 212.195Z" fill="#7D97F4"/>
<path opacity="0.5" d="M95.4225 208.409C95.6143 208.559 95.4149 208.852 95.2048 208.729C87.4565 204.2 56.8818 181.116 40.8801 130.128C40.8287 129.964 41.0678 129.873 41.1332 130.031C45.9486 141.728 65.097 184.703 95.4225 208.409Z" fill="white"/>
<path d="M35.1369 32.8003C34.7986 32.2006 35.5014 31.5562 36.0651 31.9517C45.0629 38.2643 76.5956 63.3418 84.9879 109.848C92.6665 152.398 91.0835 183.509 90.0272 195.058C89.8183 197.342 87.2283 198.558 85.3397 197.257C74.1457 189.546 43.9312 166.315 41.2355 138.568C38.014 105.409 51.2841 61.4219 35.1369 32.8003Z" fill="#91B3FA"/>
<path opacity="0.5" d="M54.0747 64.2902C54.0747 64.2902 78.7437 93.2241 87.3744 193.352C87.3744 193.352 73.37 93.1844 54.0747 64.2902Z" fill="white"/>
<path d="M65.6604 39.9326C64.9323 69.3 62.5712 170.599 63.6984 206.497C63.8178 210.3 66.8664 213.352 70.6693 213.477C89.4783 214.092 143.586 215.652 174.352 214.361C180.759 214.093 185.855 208.902 185.988 202.49C186.628 171.665 188.038 84.9665 184.685 45.2498C184.284 40.4912 180.549 36.7017 175.797 36.2263C155.313 34.1771 100.908 29.1682 74.3292 30.893C69.5356 31.204 65.7794 35.1304 65.6604 39.9326Z" fill="url(#paint1_linear_84_127)"/>
<path d="M73.303 49.0577C72.2757 73.1094 69.0354 153.124 70.0639 182.711C70.2142 187.036 73.6227 190.533 77.9426 190.786C95.7288 191.826 141.349 194.122 167.437 192.032C172.134 191.656 175.821 187.857 176.074 183.151C177.396 158.614 181.192 84.1091 180.206 54.8531C180.049 50.186 176.434 46.3743 171.782 45.9567C152.541 44.2292 103.121 40.1184 80.9523 41.328C76.7908 41.555 73.4809 44.8937 73.303 49.0577Z" fill="#BDD0FB"/>
<path opacity="0.31" d="M76.678 52.3324C75.7132 75.1969 72.6703 151.262 73.6361 179.389C73.7773 183.5 76.9781 186.824 81.0348 187.065C97.7373 188.054 140.578 190.236 165.076 188.25C169.488 187.892 172.949 184.281 173.187 179.807C174.429 156.481 177.994 85.6537 177.068 57.8418C176.92 53.405 173.525 49.7815 169.157 49.3845C151.088 47.7422 104.679 43.8345 83.8612 44.9843C79.9532 45.2001 76.8449 48.374 76.678 52.3324Z" fill="white"/>
<path d="M112.145 36.0244C112.145 36.9255 112.847 37.6687 113.747 37.7158C118.189 37.9485 130.704 38.6068 136.297 38.9313C137.4 38.9953 138.266 38.004 138.056 36.9194L138.021 36.7343C137.878 35.9941 137.264 35.4371 136.514 35.3683C132.733 35.0219 121.325 34.0614 113.767 34.3311C112.859 34.3636 112.145 35.1159 112.145 36.0244Z" fill="url(#paint2_linear_84_127)"/>
<path d="M207.286 170.297C208.791 165.051 205.758 159.578 200.512 158.074C195.266 156.569 189.793 159.602 188.288 164.848C186.784 170.094 189.817 175.567 195.063 177.071C200.309 178.576 205.782 175.543 207.286 170.297Z" fill="#91B3FA"/>
<path d="M195.335 164.291C195.335 164.036 195.129 163.83 194.874 163.83H193.26C193.005 163.83 192.798 164.036 192.798 164.291V171.656C192.798 171.911 193.005 172.117 193.26 172.117H194.874C195.129 172.117 195.335 171.911 195.335 171.656V164.291Z" fill="white"/>
<path d="M201.061 163.83H199.394V161.847C199.394 161.208 199.057 160.786 198.417 160.786H198.376C197.737 160.786 197.218 161.256 197.218 161.895L196.666 163.869C196.412 163.869 196.012 164.052 196.012 164.306V171.871C196.012 172.126 196.605 172.455 196.86 172.455H197.218H201.061C202.018 172.455 202.777 171.557 202.777 170.6V165.578C202.777 164.621 202.018 163.83 201.061 163.83Z" fill="white"/>
<path d="M217.841 126.229C219.244 120.874 216.04 115.396 210.685 113.993C205.329 112.59 199.851 115.794 198.448 121.15C197.045 126.505 200.249 131.983 205.605 133.386C210.96 134.789 216.439 131.585 217.841 126.229Z" fill="#91B3FA"/>
<path d="M212.439 120.907C211.351 119.838 209.655 120.159 208.487 121.14C208.32 121.28 208.077 121.282 207.907 121.144C206.724 120.184 205.03 119.892 203.961 120.98C202.8 122.16 202.816 124.058 203.997 125.219L207.948 129.102C208.127 129.278 208.416 129.276 208.592 129.096L212.475 125.146C213.636 123.965 213.619 122.067 212.439 120.907Z" fill="white"/>
<path d="M215.816 154.244C219.669 150.391 219.669 144.143 215.816 140.289C211.962 136.436 205.714 136.436 201.861 140.289C198.007 144.143 198.007 150.391 201.861 154.244C205.714 158.098 211.962 158.098 215.816 154.244Z" fill="#91B3FA"/>
<path d="M211.62 144.045C211.62 145.572 210.382 147.22 208.855 147.22C207.328 147.22 206.091 145.572 206.091 144.045C206.091 142.518 207.328 141.435 208.855 141.435C210.382 141.435 211.62 142.518 211.62 144.045Z" fill="white"/>
<path d="M205.424 153.099H212.173C212.884 153.099 213.513 152.639 213.729 151.963L214.092 150.828C214.358 149.997 213.926 149.097 213.106 148.797C210.36 147.793 207.52 147.922 204.61 148.89C203.795 149.161 203.343 150.033 203.568 150.862L203.848 151.893C204.041 152.604 204.687 153.099 205.424 153.099Z" fill="white"/>
<path d="M202.096 110.694C208.313 110.694 213.354 105.653 213.354 99.4358C213.354 93.2181 208.313 88.1777 202.096 88.1777C195.878 88.1777 190.838 93.2181 190.838 99.4358C190.838 105.653 195.878 110.694 202.096 110.694Z" fill="#91B3FA"/>
<path d="M202.096 106.496C198.203 106.496 195.036 103.329 195.036 99.4358C195.036 95.5428 198.203 92.3757 202.096 92.3757C205.989 92.3757 209.156 95.5428 209.156 99.4358C209.156 103.329 205.989 106.496 202.096 106.496ZM202.096 93.5588C198.855 93.5588 196.219 96.1951 196.219 99.4357C196.219 102.676 198.855 105.313 202.096 105.313C205.336 105.313 207.973 102.676 207.973 99.4357C207.973 96.1951 205.336 93.5588 202.096 93.5588Z" fill="white"/>
<path fill-rule="evenodd" clip-rule="evenodd" d="M199.884 102.155V97.0789C199.884 96.5366 200.474 96.2004 200.941 96.4772L205.218 99.0151C205.675 99.2862 205.675 99.9474 205.218 100.219L200.941 102.756C200.474 103.033 199.884 102.697 199.884 102.155Z" fill="white"/>
<path d="M147.752 116.807L99.5531 116.495C97.4075 116.481 95.6634 114.714 95.6773 112.568C95.6912 110.423 97.4581 108.679 99.6036 108.693L147.803 109.005C149.948 109.019 151.693 110.786 151.679 112.932C151.665 115.077 149.898 116.821 147.752 116.807Z" fill="url(#paint3_linear_84_127)"/>
<path d="M143.248 73.7783L105.136 73.5312C96.068 73.4724 88.6009 80.8434 88.542 89.9111L88.4442 105.007C88.422 108.425 91.2002 111.239 94.618 111.261L153.275 111.642C156.693 111.664 159.507 108.885 159.529 105.468L159.627 90.372C159.686 81.3043 152.315 73.8371 143.248 73.7783Z" fill="url(#paint4_linear_84_127)"/>
<path d="M150.73 113.706L97.1363 113.358C92.326 113.327 88.3649 117.237 88.3336 122.047L88.2881 129.079C88.1613 148.627 103.937 182.41 123.486 182.537C143.034 182.663 159.247 149.088 159.373 129.54L159.419 122.508C159.45 117.698 155.54 113.737 150.73 113.706Z" fill="url(#paint5_linear_84_127)"/>
<path d="M149.748 95.4446C149.731 98.0825 147.714 100.283 145.086 100.514C130.863 101.76 116.117 101.704 100.945 100.214C98.3123 99.9551 96.3096 97.7273 96.3267 95.0821L96.3446 92.3089C96.3617 89.6793 98.3685 87.485 100.987 87.242C115.748 85.8719 130.508 85.7108 145.266 87.4581C147.849 87.7638 149.784 89.9759 149.767 92.5766L149.748 95.4446Z" fill="url(#paint6_linear_84_127)"/>
<path d="M111.875 93.8119C111.864 95.604 110.401 97.0475 108.609 97.0359C106.817 97.0243 105.374 95.562 105.385 93.7698C105.397 91.9777 106.859 90.5342 108.651 90.5458C110.443 90.5575 111.887 92.0198 111.875 93.8119Z" fill="#91B3FA"/>
<path d="M140.708 93.9989C140.696 95.7911 139.234 97.2345 137.442 97.2229C135.65 97.2113 134.206 95.749 134.218 93.9569C134.229 92.1647 135.692 90.7213 137.484 90.7329C139.276 90.7444 140.719 92.2067 140.708 93.9989Z" fill="#91B3FA"/>
<path d="M108.699 98.3043C108.693 98.1967 108.773 98.1072 108.877 98.101C108.985 98.0947 109.074 98.175 109.08 98.2826C109.087 98.3866 109.006 98.4763 108.899 98.4825C108.895 98.4825 108.892 98.4824 108.888 98.4824C108.788 98.4818 108.702 98.4048 108.699 98.3043ZM107.724 98.4055C107.62 98.384 107.555 98.283 107.573 98.1792C107.594 98.0752 107.695 98.0066 107.799 98.0281C107.903 98.0496 107.968 98.1471 107.95 98.2544C107.932 98.3444 107.852 98.4097 107.762 98.4091C107.748 98.409 107.738 98.4056 107.724 98.4055ZM109.816 98.1451C109.786 98.0443 109.839 97.9371 109.943 97.9066C110.044 97.8726 110.151 97.9289 110.181 98.0296C110.215 98.1304 110.159 98.2375 110.058 98.2715C110.037 98.2783 110.017 98.2781 109.999 98.278C109.916 98.2775 109.844 98.2286 109.816 98.1451ZM106.606 98.0342C106.509 97.9883 106.472 97.8738 106.517 97.7805C106.56 97.6836 106.674 97.6426 106.771 97.6885C106.868 97.7341 106.905 97.8488 106.86 97.9421C106.828 98.0148 106.758 98.0524 106.686 98.052C106.661 98.0518 106.634 98.0483 106.606 98.0342ZM110.863 97.715C110.805 97.6244 110.833 97.5068 110.924 97.4484C111.011 97.3935 111.128 97.422 111.187 97.5091C111.242 97.5995 111.217 97.7174 111.126 97.7757C111.095 97.7963 111.057 97.803 111.022 97.8028C110.96 97.8024 110.897 97.7706 110.863 97.715ZM105.615 97.3966C105.536 97.3302 105.523 97.2086 105.592 97.126C105.659 97.0467 105.78 97.037 105.863 97.1034C105.942 97.17 105.952 97.2913 105.886 97.3742C105.847 97.4189 105.791 97.4428 105.736 97.4424C105.694 97.4421 105.649 97.4281 105.615 97.3966ZM111.766 97.0377C111.69 96.9644 111.687 96.843 111.76 96.7637C111.834 96.688 111.955 96.6851 112.031 96.7585C112.107 96.8318 112.109 96.9532 112.036 97.0291C111.998 97.0703 111.949 97.0875 111.897 97.0872C111.848 97.0868 111.803 97.069 111.766 97.0377ZM104.813 96.5349C104.751 96.4479 104.772 96.33 104.856 96.2682C104.943 96.2063 105.064 96.2243 105.126 96.3114C105.188 96.3985 105.166 96.5164 105.079 96.5782C105.048 96.6023 105.006 96.6159 104.968 96.6157C104.909 96.6153 104.85 96.5872 104.813 96.5349ZM112.475 96.1545C112.382 96.1019 112.351 95.9873 112.4 95.894C112.453 95.8007 112.571 95.7703 112.661 95.8195C112.754 95.872 112.788 95.9901 112.736 96.08C112.7 96.1457 112.634 96.18 112.565 96.1795C112.537 96.1793 112.503 96.1722 112.475 96.1545ZM104.251 95.5013C104.213 95.404 104.262 95.2899 104.36 95.2524C104.457 95.2148 104.568 95.2641 104.609 95.3614C104.646 95.4588 104.597 95.573 104.5 95.6104C104.475 95.6172 104.451 95.624 104.426 95.6238C104.354 95.6234 104.281 95.5779 104.251 95.5013ZM112.943 95.1242C112.839 95.0993 112.778 94.9948 112.806 94.891C112.834 94.7906 112.939 94.7288 113.039 94.7538C113.143 94.7823 113.205 94.8866 113.176 94.987C113.176 94.987 113.176 94.987 113.176 94.9904C113.155 95.0735 113.075 95.132 112.988 95.1314C112.974 95.1313 112.957 95.1278 112.943 95.1242ZM103.963 94.3586C103.95 94.2545 104.027 94.1578 104.131 94.1446C104.235 94.1316 104.332 94.2084 104.345 94.3125C104.358 94.4167 104.281 94.5132 104.177 94.5264C104.17 94.5264 104.16 94.5263 104.153 94.5262C104.059 94.5255 103.976 94.4558 103.963 94.3586ZM112.948 93.8204C112.948 93.8169 112.948 93.8169 112.948 93.8134C112.948 93.81 112.948 93.8065 112.948 93.7996C112.949 93.6955 113.033 93.6093 113.14 93.61C113.244 93.6107 113.33 93.6979 113.33 93.8021C113.33 93.8055 113.33 93.809 113.329 93.8124C113.329 93.816 113.329 93.8194 113.329 93.8229C113.329 93.9269 113.245 94.0131 113.138 94.0123C113.033 94.0116 112.947 93.9244 112.948 93.8204ZM112.948 93.7996V93.803C112.948 93.7996 112.948 93.803 112.948 93.7996ZM104.136 93.3957C104.028 93.3811 103.956 93.2869 103.967 93.1829C103.982 93.0756 104.079 93.0034 104.183 93.0179C104.287 93.0291 104.363 93.1266 104.348 93.2306C104.337 93.3276 104.254 93.3998 104.157 93.3992C104.15 93.3991 104.143 93.3957 104.136 93.3957ZM112.816 92.7271C112.789 92.6265 112.852 92.5195 112.953 92.4957C113.057 92.4686 113.161 92.5317 113.188 92.6325C113.212 92.7366 113.152 92.8403 113.048 92.8674C113.03 92.8707 113.017 92.8706 112.999 92.8705C112.916 92.87 112.837 92.814 112.816 92.7271ZM104.372 92.291C104.275 92.2521 104.227 92.1409 104.266 92.0406C104.305 91.9438 104.416 91.896 104.517 91.9347C104.613 91.9734 104.661 92.0848 104.622 92.1851C104.591 92.2577 104.517 92.3058 104.441 92.3054C104.42 92.3052 104.396 92.2981 104.372 92.291ZM112.421 91.7225C112.369 91.6286 112.405 91.5107 112.495 91.4629C112.589 91.4116 112.703 91.4435 112.755 91.5374C112.806 91.6314 112.774 91.7456 112.68 91.797C112.649 91.8141 112.618 91.8208 112.587 91.8206C112.521 91.8201 112.455 91.785 112.421 91.7225ZM104.881 91.2816C104.795 91.2153 104.775 91.0973 104.838 91.011C104.901 90.9283 105.022 90.9082 105.105 90.9711C105.191 91.0341 105.211 91.1521 105.148 91.2384C105.11 91.2901 105.051 91.3175 104.992 91.3171C104.954 91.3168 104.912 91.3062 104.881 91.2816ZM111.785 90.8445C111.713 90.7677 111.717 90.6463 111.794 90.574C111.874 90.5017 111.995 90.506 112.068 90.5827C112.14 90.6595 112.135 90.7809 112.059 90.8532C112.02 90.8877 111.972 90.9046 111.927 90.9044C111.875 90.904 111.823 90.8864 111.785 90.8445ZM105.622 90.4264C105.557 90.3462 105.568 90.2251 105.648 90.1562C105.732 90.0909 105.849 90.102 105.918 90.1822C105.984 90.266 105.972 90.3873 105.892 90.4526C105.854 90.4835 105.812 90.4972 105.767 90.4968C105.715 90.4964 105.66 90.4719 105.622 90.4264ZM110.954 90.1525C110.864 90.0964 110.84 89.9748 110.896 89.8884C110.952 89.7988 111.074 89.7717 111.16 89.8278C111.25 89.8874 111.277 90.0054 111.221 90.0953C111.183 90.1504 111.12 90.1813 111.057 90.1809C111.023 90.1807 110.988 90.1736 110.954 90.1525ZM106.552 89.7841C106.507 89.6866 106.55 89.5725 106.644 89.528C106.741 89.4836 106.855 89.526 106.9 89.6233C106.944 89.7173 106.902 89.8314 106.804 89.8758C106.78 89.8896 106.752 89.8963 106.725 89.8962C106.652 89.8957 106.583 89.8535 106.552 89.7841ZM109.979 89.6883C109.878 89.6531 109.824 89.5453 109.855 89.4449C109.887 89.3445 109.995 89.2896 110.099 89.3251C110.099 89.3251 110.099 89.3251 110.095 89.3251C110.199 89.3569 110.254 89.4647 110.219 89.5651C110.194 89.6482 110.117 89.6998 110.038 89.6992C110.017 89.699 109.996 89.6954 109.979 89.6883ZM107.612 89.3921C107.592 89.288 107.662 89.1878 107.766 89.1712C107.87 89.1511 107.97 89.2176 107.991 89.3217C108.007 89.4259 107.941 89.5261 107.837 89.5462C107.823 89.5495 107.812 89.5494 107.798 89.5494C107.712 89.5488 107.629 89.4858 107.612 89.3921ZM108.915 89.4839C108.812 89.4762 108.729 89.3856 108.736 89.2782C108.744 89.1741 108.835 89.0949 108.942 89.0992C109.046 89.1067 109.125 89.1974 109.121 89.3049C109.114 89.4054 109.026 89.4845 108.929 89.4839C108.922 89.4839 108.919 89.4839 108.915 89.4839Z" fill="#91B3FA"/>
<path d="M137.515 98.4911C137.509 98.3836 137.59 98.294 137.694 98.2877C137.801 98.2815 137.891 98.3618 137.897 98.4694C137.903 98.5734 137.823 98.6631 137.715 98.6694C137.712 98.6694 137.709 98.6694 137.705 98.6693C137.605 98.6687 137.518 98.5918 137.515 98.4911ZM136.54 98.5924C136.436 98.5709 136.371 98.4699 136.389 98.366C136.411 98.262 136.512 98.1934 136.616 98.2149C136.72 98.2364 136.785 98.3338 136.767 98.4412C136.749 98.5312 136.669 98.5965 136.579 98.5959C136.565 98.5959 136.554 98.5924 136.54 98.5924ZM138.633 98.332C138.602 98.2312 138.655 98.124 138.76 98.0936C138.86 98.0595 138.967 98.1157 138.998 98.2165C139.032 98.3173 138.976 98.4244 138.875 98.4583C138.854 98.4651 138.833 98.465 138.816 98.4649C138.733 98.4643 138.66 98.4155 138.633 98.332ZM135.423 98.221C135.326 98.1752 135.289 98.0606 135.334 97.9673C135.377 97.8703 135.491 97.8295 135.588 97.8753C135.685 97.921 135.722 98.0356 135.676 98.129C135.645 98.2016 135.575 98.2393 135.502 98.2388C135.478 98.2387 135.45 98.2351 135.423 98.221ZM139.68 97.9019C139.621 97.8113 139.65 97.6936 139.74 97.6353C139.827 97.5803 139.945 97.6089 140.004 97.6959C140.059 97.7863 140.033 97.9042 139.943 97.9626C139.911 97.9832 139.873 97.9899 139.839 97.9897C139.776 97.9892 139.714 97.9575 139.68 97.9019ZM134.432 97.5834C134.352 97.517 134.339 97.3956 134.409 97.3128C134.475 97.2335 134.597 97.2237 134.68 97.2902C134.759 97.3568 134.769 97.4781 134.702 97.5609C134.664 97.6057 134.608 97.6296 134.553 97.6293C134.511 97.6289 134.466 97.615 134.432 97.5834ZM140.582 97.2245C140.506 97.1512 140.504 97.0298 140.577 96.9505C140.65 96.8748 140.772 96.8721 140.848 96.9454C140.923 97.0186 140.926 97.1401 140.853 97.216C140.814 97.2572 140.766 97.2744 140.714 97.274C140.665 97.2737 140.62 97.256 140.582 97.2245ZM133.629 96.7218C133.567 96.6347 133.589 96.5168 133.673 96.4551C133.76 96.3931 133.881 96.4112 133.943 96.4983C134.005 96.5854 133.983 96.7033 133.896 96.765C133.865 96.7892 133.823 96.8028 133.785 96.8025C133.726 96.8021 133.667 96.774 133.629 96.7218ZM141.292 96.3414C141.199 96.2888 141.168 96.1741 141.217 96.0808C141.27 95.9875 141.388 95.9571 141.478 96.0063C141.571 96.0589 141.605 96.1769 141.552 96.2669C141.517 96.3325 141.451 96.3668 141.382 96.3663C141.354 96.3661 141.32 96.359 141.292 96.3414ZM133.067 95.6881C133.03 95.5909 133.079 95.4767 133.176 95.4393C133.274 95.4016 133.384 95.4509 133.425 95.5483C133.463 95.6456 133.414 95.7598 133.316 95.7973C133.292 95.8041 133.268 95.8109 133.243 95.8108C133.17 95.8102 133.098 95.7647 133.067 95.6881ZM141.76 95.311C141.656 95.2861 141.594 95.1816 141.623 95.0778C141.651 94.9774 141.755 94.9156 141.856 94.9407C141.96 94.9691 142.021 95.0735 141.993 95.1738C141.993 95.1738 141.993 95.1738 141.993 95.1773C141.972 95.2604 141.892 95.3188 141.805 95.3182C141.791 95.3182 141.774 95.3146 141.76 95.311ZM132.78 94.5454C132.767 94.4413 132.844 94.3446 132.948 94.3314C133.052 94.3184 133.148 94.3952 133.162 94.4992C133.175 94.6035 133.098 94.7 132.994 94.7132C132.987 94.7131 132.977 94.7131 132.97 94.713C132.876 94.7125 132.793 94.6427 132.78 94.5454ZM141.765 94.0073C141.765 94.0038 141.765 94.0038 141.765 94.0004C141.765 93.9968 141.765 93.9934 141.765 93.9865C141.765 93.8824 141.849 93.7962 141.957 93.7969C142.061 93.7975 142.147 93.8848 142.146 93.989C142.146 93.9923 142.146 93.9959 142.146 93.9993C142.146 94.0029 142.146 94.0063 142.146 94.0098C142.145 94.1138 142.062 94.1999 141.954 94.1992C141.85 94.1985 141.764 94.1112 141.765 94.0073ZM141.765 93.9865V93.9898C141.765 93.9865 141.765 93.9898 141.765 93.9865ZM132.953 93.5825C132.845 93.5679 132.773 93.4738 132.784 93.3698C132.799 93.2625 132.896 93.1904 133 93.2047C133.104 93.2159 133.18 93.3134 133.165 93.4175C133.154 93.5145 133.071 93.5867 132.973 93.5861C132.966 93.586 132.959 93.5826 132.953 93.5825ZM141.633 92.914C141.606 92.8134 141.669 92.7062 141.77 92.6825C141.874 92.6554 141.978 92.7186 142.005 92.8194C142.028 92.9235 141.969 93.0273 141.865 93.0543C141.847 93.0576 141.833 93.0575 141.816 93.0574C141.733 93.0569 141.653 93.0008 141.633 92.914ZM133.189 92.4779C133.092 92.439 133.044 92.3277 133.083 92.2274C133.122 92.1307 133.233 92.0827 133.333 92.1215C133.43 92.1603 133.478 92.2717 133.439 92.372C133.407 92.4446 133.334 92.4928 133.258 92.4922C133.237 92.4921 133.213 92.485 133.189 92.4779ZM141.237 91.9093C141.186 91.8153 141.221 91.6976 141.312 91.6497C141.406 91.5983 141.52 91.6302 141.572 91.7242C141.623 91.8182 141.591 91.9324 141.497 91.9838C141.466 92.0009 141.434 92.0076 141.403 92.0074C141.337 92.007 141.272 91.9719 141.237 91.9093ZM133.698 91.4685C133.612 91.402 133.592 91.2841 133.655 91.1978C133.718 91.1151 133.839 91.0951 133.922 91.1579C134.008 91.2209 134.028 91.3389 133.965 91.4251C133.927 91.4769 133.868 91.5043 133.809 91.5039C133.771 91.5037 133.729 91.4931 133.698 91.4685ZM140.602 91.0314C140.529 90.9545 140.533 90.8332 140.61 90.7608C140.691 90.6885 140.812 90.6929 140.884 90.7696C140.957 90.8464 140.952 90.9677 140.876 91.0401C140.837 91.0745 140.788 91.0915 140.743 91.0912C140.691 91.0908 140.639 91.0732 140.602 91.0314ZM134.439 90.6133C134.373 90.5331 134.385 90.4119 134.465 90.343C134.548 90.2777 134.666 90.2888 134.735 90.369C134.8 90.4528 134.789 90.574 134.709 90.6394C134.671 90.6703 134.629 90.6839 134.584 90.6836C134.532 90.6833 134.477 90.6587 134.439 90.6133ZM139.77 90.3393C139.681 90.2832 139.657 90.1617 139.713 90.0754C139.769 89.9856 139.891 89.9586 139.977 90.0148C140.067 90.0742 140.094 90.1923 140.038 90.2821C139.999 90.3373 139.937 90.3682 139.874 90.3678C139.84 90.3676 139.805 90.3604 139.77 90.3393ZM135.369 89.971C135.324 89.8735 135.367 89.7593 135.461 89.715C135.558 89.6705 135.672 89.7129 135.716 89.8102C135.761 89.9042 135.719 90.0183 135.621 90.0628C135.597 90.0764 135.569 90.0832 135.541 90.0831C135.469 90.0825 135.4 90.0404 135.369 89.971ZM138.796 89.8752C138.695 89.8399 138.64 89.7321 138.672 89.6317C138.704 89.5313 138.812 89.4765 138.916 89.5119C138.916 89.5119 138.916 89.5119 138.912 89.5119C139.016 89.5437 139.071 89.6515 139.035 89.7519C139.011 89.835 138.934 89.8866 138.854 89.886C138.834 89.886 138.813 89.8823 138.796 89.8752ZM136.429 89.5789C136.409 89.4748 136.479 89.3747 136.583 89.3581C136.687 89.338 136.787 89.4045 136.807 89.5086C136.824 89.6128 136.757 89.7129 136.653 89.7331C136.64 89.7364 136.629 89.7364 136.615 89.7363C136.529 89.7357 136.446 89.6727 136.429 89.5789ZM137.732 89.6707C137.628 89.6631 137.546 89.5725 137.553 89.465C137.561 89.3609 137.652 89.2818 137.759 89.286C137.863 89.2936 137.942 89.3842 137.938 89.4917C137.93 89.5922 137.843 89.6714 137.746 89.6707C137.739 89.6707 137.736 89.6707 137.732 89.6707Z" fill="#91B3FA"/>
<path d="M93.6246 65.8945C93.6182 66.8891 92.8067 67.6901 91.8122 67.6836C90.8177 67.6771 90.0167 66.8658 90.0232 65.8712C90.0296 64.8766 90.841 64.0757 91.8356 64.0821C92.8301 64.0886 93.631 64.9001 93.6246 65.8945Z" fill="url(#paint7_linear_84_127)"/>
<path d="M91.7274 80.7626C91.7274 80.7626 96.0242 81.3408 98.4122 75.7419L97.2844 73.3784C96.9005 72.5738 95.9334 72.2381 95.1335 72.6315L92.6569 73.8498C92.1129 74.1174 91.7668 74.6693 91.7629 75.2755L91.7274 80.7626Z" fill="url(#paint8_linear_84_127)"/>
<path d="M92.1752 66.7177C92.129 66.6078 91.9637 66.6568 91.985 66.7742L93.4157 74.6873C93.4482 74.8673 93.569 75.019 93.7371 75.0912C93.9052 75.1633 94.0983 75.1462 94.2512 75.0457L94.7111 74.7434C95.0934 74.4921 95.2421 74.0037 95.0646 73.582L92.1752 66.7177Z" fill="url(#paint9_linear_84_127)"/>
<path d="M154.85 66.2915C154.843 67.286 155.644 68.0975 156.639 68.104C157.633 68.1104 158.445 67.3094 158.451 66.3149C158.458 65.3204 157.657 64.5089 156.662 64.5025C155.668 64.496 154.856 65.2971 154.85 66.2915Z" fill="url(#paint10_linear_84_127)"/>
<path d="M156.554 81.1829C156.554 81.1829 152.25 81.7054 149.935 76.076L151.093 73.7272C151.487 72.9277 152.459 72.6045 153.254 73.0083L155.714 74.2586C156.255 74.5333 156.593 75.0896 156.59 75.6958L156.554 81.1829Z" fill="url(#paint11_linear_84_127)"/>
<path d="M156.478 67.1924L154.951 75.052C154.915 75.2392 154.787 75.3956 154.611 75.4686C154.435 75.5414 154.234 75.521 154.076 75.4143L153.649 75.1256C153.269 74.8693 153.127 74.3791 153.31 73.9597L156.288 67.1334C156.336 67.0242 156.5 67.0754 156.478 67.1924Z" fill="url(#paint12_linear_84_127)"/>
<path d="M104.003 82.72C103.026 82.7137 102.199 81.9615 102.117 80.969C102.031 79.9192 102.812 78.9982 103.861 78.9119C117.732 77.7714 130.401 77.8136 142.593 79.0409C143.641 79.1463 144.405 80.0815 144.3 81.1294C144.194 82.1775 143.263 82.9422 142.211 82.8361C130.253 81.6325 117.811 81.5923 104.174 82.7135C104.117 82.7182 104.06 82.7203 104.003 82.72Z" fill="#91B3FA"/>
<path d="M123.268 102.435C115.561 102.385 107.795 101.952 100.021 101.138C97.1708 100.84 95.0364 98.3049 95.0562 95.2422L95.0762 92.1519C95.096 89.113 97.2436 86.6084 100.072 86.326C116.753 84.661 131.841 84.7329 146.198 86.5462C148.977 86.8971 151.057 89.4252 151.038 92.427L151.017 95.6231C150.997 98.678 148.84 101.184 145.999 101.451C138.518 102.157 130.922 102.484 123.268 102.435ZM124.348 85.4924C116.603 85.4422 108.561 85.8393 100.108 86.6832C97.4624 86.9472 95.4537 89.2992 95.4353 92.1542L95.4152 95.2445C95.3965 98.1217 97.3926 100.502 100.059 100.781C115.53 102.402 130.976 102.507 145.966 101.094C148.622 100.844 150.639 98.4908 150.658 95.6208L150.679 92.4246C150.697 89.6043 148.751 87.2302 146.153 86.9021C139.097 86.0109 131.863 85.5412 124.348 85.4924Z" fill="#91B3FA"/>
<path d="M136.104 135.111L111.137 134.949C108.747 134.933 106.815 132.976 106.831 130.586L106.877 123.478C106.892 121.088 108.849 119.156 111.239 119.171L136.206 119.333C138.596 119.349 140.528 121.306 140.512 123.696L140.466 130.804C140.451 133.194 138.494 135.126 136.104 135.111ZM111.237 119.518C109.038 119.504 107.238 121.281 107.223 123.48L107.177 130.588C107.163 132.787 108.94 134.588 111.139 134.602L136.106 134.764C138.305 134.778 140.105 133.001 140.119 130.802L140.165 123.694C140.18 121.495 138.403 119.694 136.204 119.68L111.237 119.518Z" fill="#91B3FA"/>
<path d="M113.579 123.521C113.534 123.521 113.489 123.517 113.444 123.506C113.399 123.499 113.358 123.485 113.316 123.467C113.275 123.45 113.233 123.429 113.195 123.401C113.157 123.376 113.123 123.348 113.092 123.313C112.964 123.184 112.889 123.003 112.891 122.823C112.892 122.639 112.969 122.463 113.098 122.332C113.356 122.077 113.821 122.08 114.08 122.338C114.111 122.373 114.138 122.408 114.166 122.446C114.19 122.485 114.21 122.523 114.227 122.565C114.244 122.61 114.258 122.652 114.265 122.697C114.275 122.742 114.278 122.787 114.277 122.832C114.277 122.877 114.273 122.922 114.263 122.967C114.255 123.012 114.241 123.054 114.224 123.095C114.206 123.14 114.185 123.178 114.161 123.216C114.133 123.254 114.105 123.289 114.073 123.32C114.042 123.354 114.003 123.382 113.965 123.406C113.927 123.433 113.888 123.454 113.847 123.471C113.805 123.488 113.76 123.502 113.715 123.508C113.673 123.518 113.625 123.521 113.579 123.521Z" fill="#91B3FA"/>
<path d="M129.268 122.929C129.27 122.548 129.581 122.238 129.962 122.24C130.347 122.243 130.657 122.557 130.655 122.938C130.653 123.32 130.338 123.63 129.953 123.627C129.572 123.625 129.265 123.311 129.268 122.929ZM125.991 122.908C125.993 122.527 126.308 122.217 126.689 122.219C127.074 122.222 127.38 122.536 127.378 122.917C127.376 123.299 127.065 123.609 126.68 123.606C126.298 123.604 125.988 123.29 125.991 122.908ZM122.718 122.887C122.72 122.505 123.031 122.195 123.416 122.198C123.797 122.2 124.107 122.514 124.105 122.896C124.102 123.277 123.788 123.587 123.407 123.585C123.022 123.582 122.715 123.268 122.718 122.887ZM119.441 122.866C119.443 122.484 119.757 122.174 120.139 122.177C120.524 122.179 120.83 122.493 120.828 122.875C120.825 123.256 120.515 123.566 120.13 123.564C119.748 123.561 119.438 123.247 119.441 122.866ZM116.167 122.844C116.17 122.463 116.48 122.153 116.865 122.155C117.247 122.158 117.557 122.472 117.554 122.853C117.552 123.235 117.238 123.545 116.856 123.542C116.472 123.54 116.165 123.226 116.167 122.844Z" fill="#91B3FA"/>
<path d="M133.23 123.649C133.046 123.647 132.87 123.573 132.743 123.441C132.708 123.409 132.681 123.374 132.657 123.336C132.633 123.298 132.608 123.26 132.591 123.218C132.574 123.173 132.561 123.131 132.554 123.086C132.544 123.041 132.541 122.996 132.541 122.951C132.542 122.767 132.616 122.59 132.749 122.463C132.78 122.428 132.815 122.401 132.853 122.377C132.892 122.349 132.93 122.329 132.975 122.312C133.017 122.295 133.059 122.281 133.104 122.275C133.33 122.231 133.568 122.305 133.73 122.469C133.858 122.598 133.929 122.776 133.928 122.96C133.928 123.005 133.924 123.05 133.914 123.095C133.906 123.14 133.892 123.181 133.874 123.226C133.857 123.268 133.836 123.306 133.808 123.344C133.783 123.382 133.755 123.416 133.724 123.447C133.689 123.482 133.654 123.509 133.616 123.533C133.578 123.561 133.539 123.581 133.498 123.598C133.452 123.615 133.411 123.629 133.365 123.636C133.32 123.646 133.275 123.649 133.23 123.649Z" fill="#91B3FA"/>
<path d="M107.547 135.086C107.547 135.086 116.169 161.851 119.037 167.473C122.366 174 133.236 170.501 132.975 165.167C132.714 159.834 121.369 137.266 121.369 137.266L107.547 135.086Z" fill="url(#paint13_linear_84_127)"/>
<path d="M121.972 116.641L184.946 98.3297L181.346 156.36L119.134 139.123L121.972 116.641Z" fill="url(#paint14_linear_84_127)"/>
<path d="M189.601 127.842C188.763 144.322 185.362 157.543 182.004 157.373C178.647 157.202 176.603 143.704 177.441 127.224C178.278 110.744 181.679 97.523 185.037 97.6936C188.395 97.8642 190.438 111.362 189.601 127.842Z" fill="url(#paint15_linear_84_127)"/>
<path d="M182.57 155.355C182.049 154.768 180.961 152.552 180.218 146.924C179.5 141.486 179.309 134.47 179.68 127.169C180.051 119.868 180.952 112.907 182.218 107.57C183.527 102.047 184.834 99.9516 185.412 99.4207C185.933 100.008 187.021 102.224 187.764 107.852C188.482 113.29 188.673 120.306 188.302 127.607C187.931 134.908 187.029 141.869 185.764 147.206C184.454 152.729 183.147 154.824 182.57 155.355Z" fill="url(#paint16_linear_84_127)"/>
<mask id="mask0_84_127" style="mask-type:luminance" maskUnits="userSpaceOnUse" x="179" y="99" width="17" height="57">
<path d="M182.57 155.355C182.049 154.768 180.961 152.552 180.218 146.924C179.5 141.486 179.309 134.47 179.68 127.169C180.051 119.868 180.952 112.907 182.218 107.57C183.527 102.047 184.834 99.9516 185.412 99.4207C185.933 100.008 187.021 102.224 187.764 107.852C188.482 113.29 195.954 120.676 195.583 127.977C195.212 135.278 187.029 141.869 185.764 147.206C184.454 152.729 183.147 154.824 182.57 155.355Z" fill="white"/>
</mask>
<g mask="url(#mask0_84_127)">
<path d="M191.795 127.562C191.537 132.632 188.597 136.603 183.191 136.328C177.786 136.054 173.612 131.721 173.87 126.651C174.128 121.581 178.719 117.693 184.124 117.968C189.53 118.243 192.052 122.492 191.795 127.562Z" fill="url(#paint17_linear_84_127)"/>
</g>
<path d="M112.054 114.886C114.983 114.696 119.163 114.786 123.624 116.049C121.742 123.742 121.555 131.85 122.849 140.321L110.119 139.674C108.089 139.571 106.433 138.009 106.219 135.988C105.788 131.937 105.356 125.143 106.459 119.76C107.012 117.059 109.303 115.065 112.054 114.886Z" fill="url(#paint18_linear_84_127)"/>
<path d="M119.392 121.224L109.474 120.72C109.137 120.702 108.849 120.511 108.703 120.207C108.557 119.903 108.588 119.558 108.785 119.285C108.868 119.171 109.027 119.146 109.142 119.227C109.256 119.31 109.282 119.47 109.199 119.584C109.113 119.703 109.1 119.853 109.163 119.986C109.227 120.118 109.353 120.202 109.499 120.209L119.418 120.713C119.636 120.725 119.822 120.557 119.833 120.339L119.868 119.633C119.88 119.416 119.712 119.23 119.494 119.219L109.502 118.711C109.361 118.704 109.253 118.584 109.26 118.443C109.267 118.302 109.387 118.194 109.528 118.201L119.52 118.709C120.019 118.734 120.404 119.161 120.379 119.659L120.343 120.365C120.317 120.864 119.891 121.249 119.392 121.224Z" fill="#91B3FA"/>
<path d="M118.285 125.571L108.366 125.067C108.029 125.05 107.741 124.859 107.595 124.555C107.449 124.251 107.48 123.906 107.677 123.633C107.76 123.519 107.92 123.493 108.034 123.575C108.148 123.658 108.174 123.817 108.092 123.932C108.006 124.051 107.992 124.201 108.056 124.334C108.119 124.466 108.245 124.55 108.392 124.557L118.311 125.061C118.528 125.072 118.714 124.904 118.725 124.687L118.761 123.981C118.772 123.764 118.604 123.578 118.386 123.567L108.394 123.059C108.253 123.052 108.145 122.932 108.152 122.791C108.159 122.65 108.279 122.542 108.42 122.549L118.412 123.057C118.911 123.082 119.296 123.508 119.271 124.007L119.235 124.713C119.21 125.212 118.783 125.597 118.285 125.571Z" fill="#91B3FA"/>
<path opacity="0.7" d="M131.044 115.527C130.936 115.521 130.839 115.447 130.81 115.337C130.774 115.2 130.855 115.061 130.992 115.025L178.62 102.491C178.756 102.455 178.896 102.537 178.932 102.673C178.968 102.81 178.886 102.949 178.75 102.985L131.122 115.519C131.096 115.525 131.069 115.528 131.044 115.527Z" fill="white"/>
<path opacity="0.7" d="M124.574 117.796C124.473 117.791 124.381 117.726 124.346 117.625C124.299 117.492 124.369 117.346 124.502 117.299L126.965 116.436C127.098 116.389 127.244 116.46 127.29 116.593C127.337 116.726 127.267 116.871 127.134 116.918L124.671 117.782C124.639 117.793 124.606 117.797 124.574 117.796Z" fill="white"/>
<path d="M118.908 130.761L108.989 130.257C108.652 130.24 108.364 130.048 108.218 129.744C108.072 129.44 108.103 129.096 108.3 128.822C108.383 128.708 108.543 128.683 108.657 128.765C108.771 128.847 108.797 129.007 108.715 129.121C108.629 129.24 108.615 129.391 108.679 129.523C108.742 129.656 108.868 129.739 109.015 129.747L118.933 130.251C119.151 130.262 119.337 130.094 119.348 129.876L119.384 129.171C119.395 128.953 119.227 128.767 119.009 128.756L109.017 128.248C108.876 128.241 108.768 128.121 108.775 127.98C108.782 127.84 108.902 127.731 109.043 127.738L119.035 128.246C119.534 128.271 119.919 128.698 119.894 129.197L119.858 129.902C119.833 130.401 119.406 130.786 118.908 130.761Z" fill="#91B3FA"/>
<path d="M119.546 136.518L109.627 136.014C109.291 135.997 109.003 135.806 108.857 135.502C108.711 135.198 108.742 134.853 108.939 134.58C109.022 134.465 109.181 134.44 109.295 134.522C109.41 134.605 109.436 134.764 109.353 134.879C109.267 134.998 109.254 135.148 109.317 135.281C109.381 135.413 109.507 135.497 109.653 135.504L119.572 136.008C119.79 136.019 119.975 135.852 119.987 135.634L120.022 134.928C120.033 134.711 119.865 134.525 119.648 134.514L109.656 134.006C109.515 133.999 109.406 133.879 109.414 133.738C109.421 133.597 109.541 133.489 109.682 133.496L119.674 134.004C120.173 134.029 120.558 134.456 120.532 134.954L120.497 135.66C120.471 136.159 120.045 136.544 119.546 136.518Z" fill="#91B3FA"/>
<path d="M126.827 168.016C126.37 167.993 125.911 167.92 125.455 167.796C123.461 167.254 121.887 165.841 121.136 163.919L114.106 145.911C114.055 145.78 114.12 145.632 114.251 145.58C114.383 145.529 114.531 145.594 114.582 145.726L121.612 163.733C122.303 165.503 123.752 166.804 125.589 167.303C127.394 167.794 129.264 167.415 130.722 166.265C130.8 166.203 130.878 166.14 130.957 166.075C131.066 165.985 131.227 166 131.317 166.109C131.407 166.218 131.391 166.379 131.282 166.469C131.2 166.536 131.119 166.602 131.038 166.666C129.821 167.626 128.338 168.093 126.827 168.016Z" fill="#91B3FA"/>
<path d="M113.292 143.411C113.195 143.406 113.105 143.345 113.067 143.249L112.283 141.24C112.231 141.108 112.296 140.96 112.428 140.909C112.559 140.858 112.707 140.923 112.758 141.054L113.543 143.063C113.594 143.194 113.529 143.342 113.397 143.394C113.363 143.407 113.327 143.413 113.292 143.411Z" fill="#91B3FA"/>
<path d="M190.359 127.224C190.226 127.217 190.12 127.109 190.117 126.974C190.067 124.481 189.3 122.585 187.838 121.339C185.308 119.185 181.518 119.688 181.48 119.694C181.339 119.713 181.211 119.616 181.191 119.477C181.172 119.337 181.269 119.208 181.409 119.188C181.573 119.165 185.467 118.649 188.169 120.95C189.747 122.295 190.575 124.318 190.628 126.964C190.63 127.105 190.519 127.221 190.377 127.224C190.371 127.224 190.365 127.224 190.359 127.224Z" fill="#91B3FA"/>
<path d="M95.7492 125.244L99.0133 126.401C99.7258 126.654 100.089 127.445 99.815 128.15L87.0871 161.218C86.8248 161.894 86.0729 162.238 85.3898 161.996L83.6867 161.393L95.7492 125.244Z" fill="url(#paint19_linear_84_127)"/>
<path d="M75.205 167.019L78.6459 168.239C80.0338 168.731 81.5603 168.022 82.0805 166.645L97.214 125.764L87.6182 122.362C86.84 122.086 85.9873 122.506 85.7305 123.29L73.541 163.618C73.0776 165.016 73.8172 166.527 75.205 167.019Z" fill="url(#paint20_linear_84_127)"/>
<path d="M79.1448 153.067L84.6652 135.376C85.0955 134.162 86.4281 133.527 87.6419 133.957C88.8556 134.387 89.4908 135.72 89.0606 136.934L83.5401 154.625C83.11 155.838 81.7772 156.474 80.5635 156.043C79.3497 155.613 78.7145 154.281 79.1448 153.067Z" fill="url(#paint21_linear_84_127)"/>
<path d="M87.1347 133.777L88.149 134.137L81.0706 156.223L80.0563 155.864L87.1347 133.777Z" fill="#91B3FA"/>
<path d="M84.099 121.619C85.8602 116.651 91.316 114.05 96.2849 115.811C101.254 117.573 103.854 123.028 102.093 127.997C100.332 132.966 94.8758 135.567 89.907 133.805C84.9381 132.044 82.3379 126.588 84.099 121.619Z" fill="url(#paint22_linear_84_127)"/>
<path d="M86.2235 122.372C87.5688 118.577 91.7363 116.591 95.5318 117.936C99.3274 119.281 101.314 123.449 99.9684 127.244C98.6231 131.04 94.4556 133.026 90.66 131.681C86.8645 130.336 84.8782 126.168 86.2235 122.372Z" fill="#7D97F4"/>
<path d="M104.704 164.243L104.054 161.452C103.791 160.327 102.898 159.566 102.043 159.741L79.0588 163.945L80.8728 171.728C81.02 172.359 81.5305 172.775 82.0031 172.649L103.657 166.667C104.501 166.446 104.967 165.369 104.704 164.243Z" fill="url(#paint23_linear_84_127)"/>
<path d="M83.3736 175.328C79.3435 176.268 75.315 173.762 74.3756 169.732C73.4363 165.702 75.9418 161.673 79.972 160.734C84.0021 159.795 88.0306 162.3 88.9699 166.33C89.9093 170.361 87.4037 174.389 83.3736 175.328Z" fill="url(#paint24_linear_84_127)"/>
<path d="M82.972 173.605C79.8935 174.323 76.8162 172.409 76.0987 169.33C75.3812 166.252 77.2951 163.175 80.3736 162.457C83.4521 161.74 86.5293 163.653 87.2468 166.732C87.9644 169.81 86.0504 172.888 82.972 173.605Z" fill="#7D97F4"/>
<path d="M107.403 167.08L104.324 167.785C104.249 167.803 104.175 167.756 104.157 167.681L102.024 158.366C102.007 158.291 102.054 158.216 102.129 158.199L105.208 157.494C105.283 157.477 105.357 157.524 105.374 157.599L107.508 166.913C107.525 166.988 107.478 167.063 107.403 167.08Z" fill="#7D97F4"/>
<path d="M108.211 157.011C109.763 156.411 111.585 156.627 112.981 157.738C115.077 159.405 115.424 162.455 113.757 164.55C112.913 165.61 111.715 166.223 110.467 166.353L108.211 157.011Z" fill="url(#paint25_linear_84_127)"/>
<path d="M105.063 157.767L104.721 156.272C104.659 156.002 104.843 155.73 105.131 155.664L107.903 155.029C108.192 154.963 108.475 155.128 108.537 155.398L111.267 167.316C111.329 167.586 111.145 167.858 110.856 167.924L108.085 168.559C107.796 168.625 107.512 168.46 107.45 168.19L107.137 166.821L105.063 157.767Z" fill="#91B3FA"/>
<path d="M112.835 150.983C112.226 151.212 109.015 152.046 109.809 153.744L114.888 166.313C115.125 166.9 115.79 167.187 116.38 166.959L124.503 163.812C125.083 163.587 125.382 162.944 125.18 162.355L125.02 161.89C124.823 161.318 124.218 160.994 123.632 161.147L118.404 162.513C117.824 162.665 117.224 162.349 117.022 161.784L114.464 154.657C114.257 154.081 112.835 150.983 112.835 150.983Z" fill="#7D97F4"/>
<path d="M214.93 62.8121H137.444C136.948 62.8121 136.547 62.4107 136.547 61.9155V42.9942C136.547 42.499 136.948 42.0976 137.444 42.0976H214.93C215.426 42.0976 215.827 42.499 215.827 42.9942V61.9155C215.827 62.4107 215.426 62.8121 214.93 62.8121Z" fill="url(#paint26_linear_84_127)"/>
<path d="M170.126 62.7226L173.825 68.5385C174.383 69.4172 175.673 69.3954 176.202 68.4981L179.966 62.1103L170.126 62.7226Z" fill="url(#paint27_linear_84_127)"/>
<path d="M149.518 48.6438C149.518 50.1882 148.266 51.8555 146.722 51.8555C145.178 51.8555 143.926 50.1883 143.926 48.6438C143.926 47.0995 145.178 46.0038 146.722 46.0038C148.266 46.0039 149.518 47.0995 149.518 48.6438Z" fill="white"/>
<path d="M143.252 57.8014H150.078C150.797 57.8014 151.433 57.337 151.652 56.6526L152.019 55.5045C152.288 54.6639 151.851 53.7538 151.022 53.4507C148.244 52.4349 145.371 52.5652 142.429 53.5444C141.604 53.8187 141.147 54.7005 141.374 55.539L141.657 56.5816C141.852 57.3016 142.506 57.8014 143.252 57.8014Z" fill="white"/>
<path d="M158.529 57.8342C157.96 57.8342 157.441 57.7581 156.971 57.6058C156.501 57.4532 156.098 57.2374 155.763 56.958C155.428 56.6788 155.167 56.3408 154.982 55.9446C154.797 55.5483 154.704 55.1066 154.704 54.6189C154.704 53.9687 154.864 53.4188 155.184 52.9692C155.504 52.5198 156.002 52.1859 156.677 51.9673C156.139 51.7439 155.736 51.4264 155.47 51.0149C155.203 50.6034 155.07 50.1082 155.07 49.5291C155.07 49.1126 155.155 48.724 155.325 48.3633C155.495 48.0028 155.733 47.689 156.037 47.4224C156.342 47.1557 156.707 46.9475 157.131 46.7976C157.555 46.6478 158.021 46.5727 158.529 46.5727C159.037 46.5727 159.503 46.6478 159.927 46.7976C160.351 46.9475 160.716 47.1556 161.02 47.4224C161.325 47.689 161.563 48.0028 161.733 48.3633C161.903 48.724 161.988 49.1126 161.988 49.5291C161.988 50.1082 161.853 50.6034 161.584 51.0149C161.315 51.4264 160.914 51.7439 160.38 51.9673C161.056 52.1859 161.554 52.5198 161.874 52.9692C162.194 53.4188 162.354 53.9687 162.354 54.6189C162.354 55.1066 162.261 55.5484 162.076 55.9446C161.89 56.3408 161.63 56.6788 161.295 56.958C160.959 57.2374 160.557 57.4532 160.087 57.6058C159.617 57.7582 159.098 57.8342 158.529 57.8342ZM158.529 56.3637C158.839 56.3637 159.111 56.3193 159.344 56.2304C159.578 56.1416 159.775 56.0183 159.935 55.8609C160.095 55.7035 160.215 55.5155 160.297 55.2971C160.378 55.0787 160.419 54.8424 160.419 54.5883C160.419 53.9839 160.251 53.5269 159.916 53.2169C159.581 52.9071 159.118 52.7521 158.529 52.7521C157.94 52.7521 157.478 52.9071 157.142 53.2169C156.807 53.5269 156.639 53.9839 156.639 54.5883C156.639 54.8424 156.68 55.0787 156.761 55.2971C156.843 55.5155 156.963 55.7035 157.123 55.8609C157.283 56.0183 157.48 56.1416 157.714 56.2304C157.947 56.3193 158.219 56.3637 158.529 56.3637ZM158.529 51.2741C158.834 51.2741 159.09 51.2259 159.299 51.1294C159.507 51.0329 159.674 50.9045 159.801 50.7445C159.928 50.5844 160.019 50.4016 160.072 50.1958C160.125 49.9901 160.152 49.7781 160.152 49.5597C160.152 49.3513 160.119 49.1532 160.053 48.9653C159.987 48.7775 159.888 48.611 159.756 48.4663C159.624 48.3216 159.456 48.206 159.253 48.1195C159.05 48.0332 158.808 47.9901 158.529 47.9901C158.25 47.9901 158.008 48.0332 157.805 48.1195C157.602 48.2061 157.433 48.3216 157.298 48.4663C157.164 48.611 157.065 48.7775 157.001 48.9653C156.938 49.1532 156.906 49.3513 156.906 49.5597C156.906 49.7781 156.933 49.9901 156.986 50.1958C157.039 50.4016 157.13 50.5844 157.257 50.7445C157.383 50.9045 157.551 51.0328 157.759 51.1294C157.968 51.2259 158.224 51.2741 158.529 51.2741Z" fill="white"/>
<path d="M166.986 53.316C166.605 53.316 166.232 53.2502 165.866 53.1179C165.501 52.9858 165.174 52.7864 164.887 52.5198C164.6 52.2531 164.37 51.9229 164.198 51.5292C164.025 51.1356 163.939 50.6746 163.939 50.1464C163.939 49.6536 164.03 49.1913 164.213 48.7596C164.396 48.3278 164.652 47.9495 164.982 47.6243C165.313 47.2993 165.709 47.0428 166.171 46.8547C166.633 46.6669 167.144 46.5727 167.703 46.5727C168.266 46.5727 168.773 46.6619 169.223 46.8394C169.672 47.0173 170.056 47.2662 170.373 47.5861C170.691 47.906 170.934 48.2898 171.105 48.7367C171.275 49.1837 171.36 49.6739 171.36 50.2072C171.36 50.5476 171.331 50.8702 171.272 51.1749C171.214 51.4798 171.13 51.7731 171.021 52.055C170.912 52.337 170.781 52.6111 170.628 52.8779C170.476 53.1445 170.306 53.4126 170.118 53.6817L167.596 57.278C167.51 57.4001 167.381 57.503 167.211 57.5866C167.041 57.6705 166.847 57.7124 166.628 57.7124H164.899L168.32 53.4378C168.406 53.3312 168.487 53.2272 168.564 53.1255C168.64 53.0239 168.713 52.9223 168.785 52.8207C168.531 52.9833 168.251 53.1065 167.947 53.1902C167.642 53.2741 167.322 53.316 166.986 53.316ZM169.554 50.0167C169.554 49.7172 169.508 49.4492 169.417 49.2129C169.325 48.9767 169.196 48.7775 169.028 48.6149C168.861 48.4523 168.661 48.3278 168.43 48.2415C168.199 48.1552 167.946 48.1118 167.672 48.1118C167.388 48.1118 167.131 48.1589 166.902 48.2528C166.674 48.3469 166.48 48.4775 166.32 48.6453C166.16 48.8129 166.036 49.0124 165.95 49.2434C165.864 49.4746 165.821 49.7272 165.821 50.0014C165.821 50.6162 165.979 51.0848 166.297 51.4074C166.614 51.7299 167.065 51.8912 167.649 51.8912C167.954 51.8912 168.224 51.8428 168.461 51.7463C168.697 51.6499 168.896 51.5178 169.059 51.35C169.221 51.1824 169.344 50.9843 169.428 50.7559C169.512 50.5273 169.554 50.2811 169.554 50.0167Z" fill="white"/>
<path d="M189.494 53.3162C189.113 53.3162 188.74 53.2503 188.374 53.118C188.008 52.986 187.682 52.7866 187.395 52.52C187.108 52.2532 186.878 51.923 186.706 51.5294C186.533 51.1358 186.447 50.6748 186.447 50.1466C186.447 49.6538 186.538 49.1915 186.721 48.7597C186.904 48.328 187.16 47.9497 187.49 47.6245C187.82 47.2995 188.217 47.043 188.679 46.8549C189.141 46.6671 189.652 46.5729 190.21 46.5729C190.774 46.5729 191.281 46.662 191.731 46.8397C192.18 47.0175 192.564 47.2664 192.881 47.5864C193.199 47.9063 193.442 48.2901 193.613 48.7369C193.783 49.1839 193.868 49.6741 193.868 50.2074C193.868 50.5478 193.839 50.8704 193.78 51.1751C193.722 51.48 193.638 51.7734 193.529 52.0552C193.42 52.3372 193.289 52.6114 193.136 52.8782C192.984 53.1448 192.814 53.4128 192.626 53.682L190.104 57.2783C190.017 57.4003 189.889 57.5032 189.719 57.5869C189.549 57.6708 189.355 57.7127 189.136 57.7127H187.407L190.828 53.4381C190.914 53.3315 190.995 53.2275 191.072 53.1257C191.148 53.0242 191.221 52.9225 191.293 52.821C191.039 52.9835 190.759 53.1067 190.454 53.1905C190.15 53.2743 189.83 53.3162 189.494 53.3162ZM192.062 50.0169C192.062 49.7174 192.016 49.4494 191.925 49.2131C191.833 48.9769 191.704 48.7777 191.536 48.615C191.369 48.4525 191.169 48.328 190.938 48.2417C190.707 48.1554 190.454 48.112 190.18 48.112C189.895 48.112 189.639 48.1591 189.41 48.253C189.182 48.3471 188.988 48.4777 188.828 48.6455C188.667 48.8131 188.544 49.0125 188.458 49.2436C188.372 49.4748 188.328 49.7274 188.328 50.0016C188.328 50.6164 188.487 51.085 188.805 51.4075C189.122 51.7301 189.573 51.8914 190.157 51.8914C190.462 51.8914 190.732 51.843 190.969 51.7465C191.205 51.6501 191.404 51.518 191.567 51.3502C191.729 51.1826 191.852 50.9845 191.936 50.756C192.02 50.5275 192.062 50.2812 192.062 50.0169Z" fill="white"/>
<path d="M201.83 47.495C201.83 47.7642 201.745 47.9826 201.575 48.1502C201.404 48.3178 201.121 48.4017 200.725 48.4017H197.693L197.296 50.7027C197.794 50.6012 198.249 50.5504 198.66 50.5504C199.239 50.5504 199.749 50.6367 200.188 50.8093C200.627 50.9821 200.997 51.2208 201.297 51.5255C201.596 51.8304 201.822 52.1874 201.975 52.5961C202.127 53.0051 202.203 53.4456 202.203 53.9181C202.203 54.5022 202.1 55.0357 201.895 55.5183C201.689 56.0009 201.403 56.4134 201.037 56.7565C200.672 57.0993 200.239 57.3647 199.738 57.5527C199.238 57.7405 198.693 57.8345 198.104 57.8345C197.759 57.8345 197.431 57.799 197.121 57.7279C196.811 57.6568 196.52 57.5616 196.249 57.4422C195.977 57.3229 195.725 57.1857 195.494 57.0307C195.263 56.8757 195.056 56.712 194.873 56.5392L195.452 55.7391C195.574 55.5665 195.737 55.4802 195.94 55.4802C196.067 55.4802 196.195 55.5209 196.325 55.602C196.454 55.6833 196.605 55.7722 196.778 55.8687C196.951 55.9653 197.152 56.0542 197.38 56.1353C197.609 56.2166 197.886 56.2573 198.211 56.2573C198.556 56.2573 198.861 56.2013 199.125 56.0897C199.389 55.9779 199.609 55.8219 199.784 55.621C199.959 55.4204 200.091 55.1818 200.18 54.9048C200.269 54.628 200.314 54.327 200.314 54.0019C200.314 53.4027 200.14 52.9341 199.792 52.5961C199.444 52.2585 198.932 52.0896 198.256 52.0896C197.723 52.0896 197.187 52.1861 196.649 52.3791L195.475 52.0438L196.39 46.695H201.83L201.83 47.495Z" fill="white"/>
<path d="M210.31 53.56H211.697V54.6495C211.697 54.7512 211.664 54.8389 211.598 54.9123C211.532 54.9859 211.435 55.0228 211.308 55.0228H210.31V57.7125H208.664V55.0229H204.016C203.889 55.0229 203.778 54.9837 203.681 54.9048C203.585 54.8261 203.524 54.7284 203.498 54.6114L203.308 53.659L208.527 46.6873H210.31V53.56ZM208.664 49.9561C208.664 49.7935 208.669 49.6183 208.68 49.4302C208.69 49.2425 208.707 49.0468 208.733 48.8437L205.312 53.5601H208.664V49.9561Z" fill="white"/>
<path d="M184.601 50.6317C183.719 49.7646 182.343 50.0254 181.395 50.8207C181.26 50.9347 181.063 50.936 180.925 50.8244C179.965 50.0459 178.591 49.8089 177.724 50.691C176.783 51.6486 176.796 53.188 177.754 54.1294L180.958 57.279C181.104 57.4221 181.338 57.4201 181.481 57.2746L184.63 54.0702C185.572 53.1124 185.558 51.573 184.601 50.6317Z" fill="white"/>
<defs>
<linearGradient id="paint0_linear_84_127" x1="235.167" y1="248.883" x2="102.807" y2="107.984" gradientUnits="userSpaceOnUse">
<stop stop-color="#DAE3FE"/>
<stop offset="1" stop-color="#E9EFFD"/>
</linearGradient>
<linearGradient id="paint1_linear_84_127" x1="63.3985" y1="122.698" x2="186.834" y2="122.698" gradientUnits="userSpaceOnUse">
<stop stop-color="#09005D"/>
<stop offset="1" stop-color="#1A0F91"/>
</linearGradient>
<linearGradient id="paint2_linear_84_127" x1="112.145" y1="36.6091" x2="138.088" y2="36.6091" gradientUnits="userSpaceOnUse">
<stop stop-color="#4F52FF"/>
<stop offset="1" stop-color="#4042E2"/>
</linearGradient>
<linearGradient id="paint3_linear_84_127" x1="85.8247" y1="39.423" x2="125.745" y2="116.754" gradientUnits="userSpaceOnUse">
<stop stop-color="#09005D"/>
<stop offset="1" stop-color="#1A0F91"/>
</linearGradient>
<linearGradient id="paint4_linear_84_127" x1="102.974" y1="65.7181" x2="154.266" y2="139.603" gradientUnits="userSpaceOnUse">
<stop stop-color="#4F52FF"/>
<stop offset="1" stop-color="#4042E2"/>
</linearGradient>
<linearGradient id="paint5_linear_84_127" x1="117.642" y1="184.905" x2="124.455" y2="120.87" gradientUnits="userSpaceOnUse">
<stop stop-color="#4F52FF"/>
<stop offset="1" stop-color="#4042E2"/>
</linearGradient>
<linearGradient id="paint6_linear_84_127" x1="96.3266" y1="93.7876" x2="149.767" y2="93.7876" gradientUnits="userSpaceOnUse">
<stop stop-color="#09005D"/>
<stop offset="1" stop-color="#1A0F91"/>
</linearGradient>
<linearGradient id="paint7_linear_84_127" x1="92.6951" y1="58.4806" x2="90.2782" y2="79.0159" gradientUnits="userSpaceOnUse">
<stop stop-color="#4F52FF"/>
<stop offset="1" stop-color="#4042E2"/>
</linearGradient>
<linearGradient id="paint8_linear_84_127" x1="91.7543" y1="76.6088" x2="98.4064" y2="76.6521" gradientUnits="userSpaceOnUse">
<stop stop-color="#09005D"/>
<stop offset="1" stop-color="#1A0F91"/>
</linearGradient>
<linearGradient id="paint9_linear_84_127" x1="94.8854" y1="59.1241" x2="92.5815" y2="78.6991" gradientUnits="userSpaceOnUse">
<stop stop-color="#4F52FF"/>
<stop offset="1" stop-color="#4042E2"/>
</linearGradient>
<linearGradient id="paint10_linear_84_127" x1="156.685" y1="66.011" x2="154.268" y2="86.5463" gradientUnits="userSpaceOnUse">
<stop stop-color="#4F52FF"/>
<stop offset="1" stop-color="#4042E2"/>
</linearGradient>
<linearGradient id="paint11_linear_84_127" x1="149.929" y1="76.986" x2="156.581" y2="77.0292" gradientUnits="userSpaceOnUse">
<stop stop-color="#09005D"/>
<stop offset="1" stop-color="#1A0F91"/>
</linearGradient>
<linearGradient id="paint12_linear_84_127" x1="155.424" y1="65.9032" x2="153.096" y2="85.6781" gradientUnits="userSpaceOnUse">
<stop stop-color="#4F52FF"/>
<stop offset="1" stop-color="#4042E2"/>
</linearGradient>
<linearGradient id="paint13_linear_84_127" x1="120.839" y1="138.06" x2="119.136" y2="174.164" gradientUnits="userSpaceOnUse">
<stop stop-color="#09005D"/>
<stop offset="1" stop-color="#1A0F91"/>
</linearGradient>
<linearGradient id="paint14_linear_84_127" x1="193.901" y1="97.5507" x2="141.448" y2="145.916" gradientUnits="userSpaceOnUse">
<stop stop-color="#FF928E"/>
<stop offset="1" stop-color="#FE7062"/>
</linearGradient>
<linearGradient id="paint15_linear_84_127" x1="218.157" y1="115.122" x2="176.969" y2="129.881" gradientUnits="userSpaceOnUse">
<stop stop-color="#FEBBBA"/>
<stop offset="1" stop-color="#FF928E"/>
</linearGradient>
<linearGradient id="paint16_linear_84_127" x1="176.774" y1="127.676" x2="192.853" y2="127.034" gradientUnits="userSpaceOnUse">
<stop stop-color="#E1473D"/>
<stop offset="1" stop-color="#E9605A"/>
</linearGradient>
<linearGradient id="paint17_linear_84_127" x1="197.049" y1="127.06" x2="153.762" y2="127.345" gradientUnits="userSpaceOnUse">
<stop stop-color="#09005D"/>
<stop offset="1" stop-color="#1A0F91"/>
</linearGradient>
<linearGradient id="paint18_linear_84_127" x1="124.711" y1="109.202" x2="111.087" y2="137.131" gradientUnits="userSpaceOnUse">
<stop stop-color="#09005D"/>
<stop offset="1" stop-color="#1A0F91"/>
</linearGradient>
<linearGradient id="paint19_linear_84_127" x1="86.6974" y1="145.186" x2="74.5866" y2="149.576" gradientUnits="userSpaceOnUse">
<stop stop-color="#09005D"/>
<stop offset="1" stop-color="#1A0F91"/>
</linearGradient>
<linearGradient id="paint20_linear_84_127" x1="111.481" y1="116.342" x2="96.3421" y2="132.086" gradientUnits="userSpaceOnUse">
<stop stop-color="#09005D"/>
<stop offset="1" stop-color="#1A0F91"/>
</linearGradient>
<linearGradient id="paint21_linear_84_127" x1="75.852" y1="143.571" x2="90.6479" y2="146.134" gradientUnits="userSpaceOnUse">
<stop stop-color="#4F52FF"/>
<stop offset="1" stop-color="#4042E2"/>
</linearGradient>
<linearGradient id="paint22_linear_84_127" x1="93.2639" y1="124.832" x2="19.6908" y2="114.387" gradientUnits="userSpaceOnUse">
<stop stop-color="#4F52FF"/>
<stop offset="1" stop-color="#4042E2"/>
</linearGradient>
<linearGradient id="paint23_linear_84_127" x1="80.0966" y1="168.399" x2="104.355" y2="162.745" gradientUnits="userSpaceOnUse">
<stop stop-color="#09005D"/>
<stop offset="1" stop-color="#1A0F91"/>
</linearGradient>
<linearGradient id="paint24_linear_84_127" x1="94.9438" y1="175.816" x2="65.844" y2="158.746" gradientUnits="userSpaceOnUse">
<stop stop-color="#4F52FF"/>
<stop offset="1" stop-color="#4042E2"/>
</linearGradient>
<linearGradient id="paint25_linear_84_127" x1="109.3" y1="161.686" x2="114.685" y2="160.431" gradientUnits="userSpaceOnUse">
<stop stop-color="#09005D"/>
<stop offset="1" stop-color="#1A0F91"/>
</linearGradient>
<linearGradient id="paint26_linear_84_127" x1="201.257" y1="20.9273" x2="170.461" y2="59.6563" gradientUnits="userSpaceOnUse">
<stop stop-color="#FF928E"/>
<stop offset="1" stop-color="#FE7062"/>
</linearGradient>
<linearGradient id="paint27_linear_84_127" x1="205.15" y1="25.3971" x2="175.176" y2="63.092" gradientUnits="userSpaceOnUse">
<stop stop-color="#FF928E"/>
<stop offset="1" stop-color="#FE7062"/>
</linearGradient>
</defs>
</svg>
