<?xml version="1.0" encoding="utf-8"?>
<!-- Generator: Adobe Illustrator 27.5.0, SVG Export Plug-In . SVG Version: 6.00 Build 0)  -->
<svg version="1.1" xmlns="http://www.w3.org/2000/svg" xmlns:xlink="http://www.w3.org/1999/xlink" x="0px" y="0px"
	 viewBox="0 0 500 500" style="enable-background:new 0 0 500 500;" xml:space="preserve">
<g id="Background_Simple">
	<g>
		<path style="fill:#C6FF00;" d="M409.436,336.857c-10.117-2.248,8.431-6.745,8.431-6.745s-80.377,3.373-83.749,0
			c-3.372-3.372,25.293-5.059,25.293-5.059s3.935-6.183,6.745-7.307c2.81-1.124,8.993,1.686,12.366,1.686
			c3.372,0,1.686-4.497,6.745-7.307c5.059-2.81,8.993,3.372,14.052,1.686c5.059-1.686,0.562-11.804,11.242-19.111
			c10.679-7.307,17.424,5.621,17.424,5.621c2.827,1.131,6.081,1.268,9.403,1.981c-6.6-27.531-37.586-47.058-38.521-67.333
			c-1.047-22.694,15.699-40.66-2.093-75.646c-17.792-34.986-24.072-17.02-59.656-38.769c0,0-19.885-30.258-48.143-32.15
			c-28.258-1.891-38.724,9.456-68.029,13.238c-29.305,3.782-55.469-5.673-91.054,14.184c-35.584,19.857-27.212,39.714-26.165,57.68
			c1.047,17.966-28.258,48.224-31.398,75.646c-3.14,27.422,16.745,34.041,18.839,53.898c2.093,19.857-47.097,37.823-28.258,69.973
			c3.711,6.334,7.992,10.68,12.553,13.729c2.76-7.308,9.801-12.515,18.075-12.515c10.607,0,19.209,8.543,19.326,19.122
			c6.62-7.342,16.203-11.96,26.868-11.96c19.974,0,36.167,16.193,36.167,36.167c0,0.246-0.014,0.489-0.018,0.734
			c2.147-0.706,4.439-1.093,6.822-1.093c3.828,0,7.425,0.988,10.553,2.718c3.081-11.863,13.861-20.622,26.688-20.622
			c0.141,0,0.28,0.008,0.421,0.011v-81.107h24.288v89.781c2.069-0.967,4.369-1.522,6.804-1.522c0.384,0,0.76,0.031,1.137,0.057
			v-88.316h24.288v95.263c2.779-2.139,6.249-3.424,10.026-3.424c2.264,0,4.421,0.458,6.384,1.284
			c5.343-7.29,13.964-12.027,23.695-12.027c12.436,0,23.059,7.735,27.34,18.654c2.408-0.933,5.016-1.465,7.753-1.465
			c2.569,0,5.022,0.474,7.305,1.301c-1.022-3.236-1.576-6.68-1.576-10.254c0-18.788,15.231-34.018,34.018-34.018
			c0.871,0,1.731,0.043,2.585,0.108c-1.409-2.461-2.227-5.304-2.227-8.344c0-9.295,7.535-16.83,16.83-16.83
			c4.223,0,8.073,1.567,11.028,4.136c4.398-4.691,8.499-9.396,11.725-14.75C422.208,337.917,413.292,337.713,409.436,336.857z
			 M151.616,244.833c-6.788-1.508,5.657-4.525,5.657-4.525s-8.657,0.363-19.177,0.653c0.249,1.932-1.543,4.179-1.543,4.179
			s-16.386,0.819-20.073,0c-3.687-0.819,3.072-2.458,3.072-2.458s-29.29,1.229-30.519,0c-1.229-1.229,9.217-1.843,9.217-1.843
			s1.434-2.253,2.458-2.663c0.704-0.282,1.986,0.112,3.119,0.387c0.68-0.152,1.442-0.294,2.256-0.426
			c0.264-0.57,0.489-1.398,1.589-2.009c1.843-1.024,3.277,1.229,5.121,0.615c1.843-0.615,0.205-4.301,4.097-6.964
			c3.892-2.663,6.35,2.048,6.35,2.048c0.025,0.01,0.051,0.017,0.077,0.027c2.081-0.183,5.557,1.29,7.559,1.29
			c2.263,0,1.131-3.017,4.525-4.902c3.394-1.886,6.034,2.263,9.428,1.131c3.394-1.131,0.377-7.919,7.542-12.822
			c7.165-4.902,11.69,3.771,11.69,3.771c3.771,1.508,8.673,0.377,12.822,4.902c4.148,4.525-0.754,6.034,1.131,8.296
			c1.885,2.263,10.559-1.885,12.822,1.886c2.263,3.771-2.263,9.428-2.263,9.428S158.404,246.342,151.616,244.833z M192.013,397.872
			c-4.944,0-8.952-4.008-8.952-8.952c0-4.944,4.008-8.952,8.952-8.952c4.944,0,8.952,4.008,8.952,8.952
			C200.965,393.864,196.957,397.872,192.013,397.872z M209.917,356.333c1.78,0,3.223,1.443,3.223,3.223
			c0,1.78-1.443,3.223-3.223,3.223s-3.223-1.443-3.223-3.223C206.694,357.776,208.137,356.333,209.917,356.333z M208.843,390.71
			c-2.769,0-5.013-2.244-5.013-5.013c0-2.769,2.245-5.013,5.013-5.013c2.769,0,5.013,2.245,5.013,5.013
			C213.856,388.466,211.612,390.71,208.843,390.71z M289.055,408.614c-2.373,0-4.297-1.924-4.297-4.297s1.924-4.297,4.297-4.297
			c2.373,0,4.297,1.924,4.297,4.297S291.428,408.614,289.055,408.614z M287.622,392.858c-4.351,0-7.878-3.527-7.878-7.878
			c0-4.351,3.527-7.878,7.878-7.878s7.878,3.527,7.878,7.878C295.5,389.332,291.973,392.858,287.622,392.858z M311.615,388.561
			c-2.175,0-3.939-1.764-3.939-3.939c0-2.176,1.764-3.939,3.939-3.939c2.175,0,3.939,1.763,3.939,3.939
			C315.553,386.798,313.79,388.561,311.615,388.561z"/>
		<path style="opacity:0.5;fill:#FFFFFF;" d="M409.436,336.857c-10.117-2.248,8.431-6.745,8.431-6.745s-80.377,3.373-83.749,0
			c-3.372-3.372,25.293-5.059,25.293-5.059s3.935-6.183,6.745-7.307c2.81-1.124,8.993,1.686,12.366,1.686
			c3.372,0,1.686-4.497,6.745-7.307c5.059-2.81,8.993,3.372,14.052,1.686c5.059-1.686,0.562-11.804,11.242-19.111
			c10.679-7.307,17.424,5.621,17.424,5.621c2.827,1.131,6.081,1.268,9.403,1.981c-6.6-27.531-37.586-47.058-38.521-67.333
			c-1.047-22.694,15.699-40.66-2.093-75.646c-17.792-34.986-24.072-17.02-59.656-38.769c0,0-19.885-30.258-48.143-32.15
			c-28.258-1.891-38.724,9.456-68.029,13.238c-29.305,3.782-55.469-5.673-91.054,14.184c-35.584,19.857-27.212,39.714-26.165,57.68
			c1.047,17.966-28.258,48.224-31.398,75.646c-3.14,27.422,16.745,34.041,18.839,53.898c2.093,19.857-47.097,37.823-28.258,69.973
			c3.711,6.334,7.992,10.68,12.553,13.729c2.76-7.308,9.801-12.515,18.075-12.515c10.607,0,19.209,8.543,19.326,19.122
			c6.62-7.342,16.203-11.96,26.868-11.96c19.974,0,36.167,16.193,36.167,36.167c0,0.246-0.014,0.489-0.018,0.734
			c2.147-0.706,4.439-1.093,6.822-1.093c3.828,0,7.425,0.988,10.553,2.718c3.081-11.863,13.861-20.622,26.688-20.622
			c0.141,0,0.28,0.008,0.421,0.011v-81.107h24.288v89.781c2.069-0.967,4.369-1.522,6.804-1.522c0.384,0,0.76,0.031,1.137,0.057
			v-88.316h24.288v95.263c2.779-2.139,6.249-3.424,10.026-3.424c2.264,0,4.421,0.458,6.384,1.284
			c5.343-7.29,13.964-12.027,23.695-12.027c12.436,0,23.059,7.735,27.34,18.654c2.408-0.933,5.016-1.465,7.753-1.465
			c2.569,0,5.022,0.474,7.305,1.301c-1.022-3.236-1.576-6.68-1.576-10.254c0-18.788,15.231-34.018,34.018-34.018
			c0.871,0,1.731,0.043,2.585,0.108c-1.409-2.461-2.227-5.304-2.227-8.344c0-9.295,7.535-16.83,16.83-16.83
			c4.223,0,8.073,1.567,11.028,4.136c4.398-4.691,8.499-9.396,11.725-14.75C422.208,337.917,413.292,337.713,409.436,336.857z
			 M151.616,244.833c-6.788-1.508,5.657-4.525,5.657-4.525s-8.657,0.363-19.177,0.653c0.249,1.932-1.543,4.179-1.543,4.179
			s-16.386,0.819-20.073,0c-3.687-0.819,3.072-2.458,3.072-2.458s-29.29,1.229-30.519,0c-1.229-1.229,9.217-1.843,9.217-1.843
			s1.434-2.253,2.458-2.663c0.704-0.282,1.986,0.112,3.119,0.387c0.68-0.152,1.442-0.294,2.256-0.426
			c0.264-0.57,0.489-1.398,1.589-2.009c1.843-1.024,3.277,1.229,5.121,0.615c1.843-0.615,0.205-4.301,4.097-6.964
			c3.892-2.663,6.35,2.048,6.35,2.048c0.025,0.01,0.051,0.017,0.077,0.027c2.081-0.183,5.557,1.29,7.559,1.29
			c2.263,0,1.131-3.017,4.525-4.902c3.394-1.886,6.034,2.263,9.428,1.131c3.394-1.131,0.377-7.919,7.542-12.822
			c7.165-4.902,11.69,3.771,11.69,3.771c3.771,1.508,8.673,0.377,12.822,4.902c4.148,4.525-0.754,6.034,1.131,8.296
			c1.885,2.263,10.559-1.885,12.822,1.886c2.263,3.771-2.263,9.428-2.263,9.428S158.404,246.342,151.616,244.833z M192.013,397.872
			c-4.944,0-8.952-4.008-8.952-8.952c0-4.944,4.008-8.952,8.952-8.952c4.944,0,8.952,4.008,8.952,8.952
			C200.965,393.864,196.957,397.872,192.013,397.872z M209.917,356.333c1.78,0,3.223,1.443,3.223,3.223
			c0,1.78-1.443,3.223-3.223,3.223s-3.223-1.443-3.223-3.223C206.694,357.776,208.137,356.333,209.917,356.333z M208.843,390.71
			c-2.769,0-5.013-2.244-5.013-5.013c0-2.769,2.245-5.013,5.013-5.013c2.769,0,5.013,2.245,5.013,5.013
			C213.856,388.466,211.612,390.71,208.843,390.71z M289.055,408.614c-2.373,0-4.297-1.924-4.297-4.297s1.924-4.297,4.297-4.297
			c2.373,0,4.297,1.924,4.297,4.297S291.428,408.614,289.055,408.614z M287.622,392.858c-4.351,0-7.878-3.527-7.878-7.878
			c0-4.351,3.527-7.878,7.878-7.878s7.878,3.527,7.878,7.878C295.5,389.332,291.973,392.858,287.622,392.858z M311.615,388.561
			c-2.175,0-3.939-1.764-3.939-3.939c0-2.176,1.764-3.939,3.939-3.939c2.175,0,3.939,1.763,3.939,3.939
			C315.553,386.798,313.79,388.561,311.615,388.561z"/>
	</g>
</g>
<g id="Clouds">
	<g>
		<path style="fill:#FFFFFF;stroke:#263238;stroke-linecap:round;stroke-linejoin:round;stroke-miterlimit:10;" d="M335.726,122.349
			c0,0-6.969-13.357-18.003-5.808c-11.034,7.55-6.388,18.003-11.615,19.746c-5.227,1.742-9.292-4.646-14.519-1.742
			c-5.227,2.904-3.485,7.55-6.969,7.55s-9.873-2.904-12.776-1.742c-2.904,1.161-6.969,7.55-6.969,7.55s-29.618,1.742-26.134,5.227
			c3.484,3.484,86.532,0,86.532,0s-19.165,4.646-8.711,6.969c10.454,2.323,56.914,0,56.914,0s6.969-8.711,3.484-14.519
			c-3.484-5.807-16.842,0.581-19.746-2.904c-2.904-3.484,4.646-5.807-1.742-12.777C349.084,122.93,341.534,124.672,335.726,122.349z
			"/>
		<path style="opacity:0.51;fill:#C6FF00;" d="M377.901,150.077c-0.076-0.371-0.054-0.738,0.025-1.106
			c-0.046-1.18-0.331-2.334-0.966-3.392c-3.484-5.807-16.842,0.581-19.746-2.904c-2.904-3.484,4.646-5.807-1.742-12.777
			c-4.348-4.744-9.234-5.451-13.743-6.152c-0.862,0.359-1.752,0.831-2.672,1.461c-11.034,7.55-6.388,18.003-11.615,19.746
			c-5.227,1.742-9.292-4.646-14.519-1.742c-5.227,2.904-3.484,7.55-6.969,7.55c-3.484,0-9.873-2.904-12.776-1.742
			c-1.771,0.708-3.97,3.357-5.419,5.319c19.561-0.456,37.515-1.209,37.515-1.209s-19.165,4.646-8.711,6.969
			c10.454,2.323,56.914,0,56.914,0S377.51,155.049,377.901,150.077z"/>
		<path style="fill:#FFFFFF;stroke:#263238;stroke-linecap:round;stroke-linejoin:round;stroke-miterlimit:10;" d="M149.07,285.904
			c0,0-4.312-8.265-11.14-3.594c-6.828,4.672-3.953,11.14-7.187,12.218c-3.234,1.078-5.75-2.875-8.984-1.078
			c-3.234,1.797-2.156,4.672-4.312,4.672c-2.156,0-6.109-1.797-7.906-1.078c-1.797,0.719-4.312,4.672-4.312,4.672
			s-18.327,1.078-16.171,3.234c2.156,2.156,53.544,0,53.544,0s-11.859,2.875-5.39,4.312c6.468,1.437,35.217,0,35.217,0
			s4.312-5.39,2.156-8.984c-2.156-3.594-10.421,0.359-12.218-1.797c-1.797-2.156,2.875-3.594-1.078-7.906
			C157.336,286.263,152.664,287.341,149.07,285.904z"/>
		<path style="opacity:0.51;fill:#C6FF00;" d="M172.429,309.262c0,0,4.312-5.39,2.156-8.984c-2.156-3.594-10.421,0.359-12.218-1.797
			c-1.797-2.156,2.875-3.594-1.078-7.906c-3.799-4.145-8.26-3.316-11.791-4.521c-4.733,4.889-2.623,10.811-5.565,11.879
			c-3.234,1.174-5.75-3.129-8.984-1.174c-3.234,1.956-2.156,5.085-4.312,5.085c-2.156,0-6.109-1.956-7.906-1.173
			c-1.711,0.745-4.067,4.672-4.29,5.048c12.466-0.279,24.162-0.77,24.162-0.77s-11.859,2.875-5.39,4.312
			c1.185,0.263,3.121,0.429,5.487,0.526c7.536-0.257,13.093-0.511,13.093-0.511s-0.858,0.227-1.983,0.587
			C163.055,309.73,172.429,309.262,172.429,309.262z"/>
		<path style="fill:#FFFFFF;stroke:#263238;stroke-linecap:round;stroke-linejoin:round;stroke-miterlimit:10;" d="M197.07,107.904
			c0,0-4.312-8.265-11.14-3.594c-6.828,4.672-3.953,11.14-7.187,12.218c-3.234,1.078-5.75-2.875-8.984-1.078
			c-3.234,1.797-2.156,4.672-4.312,4.672c-2.156,0-6.109-1.797-7.906-1.078c-1.797,0.719-4.312,4.672-4.312,4.672
			s-18.327,1.078-16.171,3.234c2.156,2.156,53.544,0,53.544,0s-11.859,2.875-5.39,4.312c6.468,1.437,35.217,0,35.217,0
			s4.312-5.39,2.156-8.984c-2.156-3.593-10.421,0.359-12.218-1.797c-1.797-2.156,2.875-3.594-1.078-7.906
			C205.336,108.263,200.664,109.341,197.07,107.904z"/>
		<path style="opacity:0.51;fill:#C6FF00;" d="M220.429,131.262c0,0,4.312-5.39,2.156-8.984c-2.156-3.594-10.421,0.359-12.218-1.797
			c-1.797-2.156,2.875-3.593-1.078-7.906c-3.262-3.558-7.011-3.449-10.242-4.108c-6.542,4.658-3.772,10.995-6.97,12.061
			c-3.234,1.078-5.75-2.875-8.984-1.078c-3.234,1.797-2.156,4.672-4.312,4.672c-2.156,0-6.109-1.797-7.906-1.078
			c-1.797,0.719-4.312,4.672-4.312,4.672s-0.018,0.001-0.03,0.002c12.431-0.28,24.07-0.768,24.07-0.768s-11.859,2.875-5.39,4.312
			c0.479,0.106,1.093,0.195,1.795,0.272c9.407-0.269,16.929-0.584,16.929-0.584s-1.561,0.379-3.242,0.93
			C210.286,131.769,220.429,131.262,220.429,131.262z"/>
		<path style="fill:#FFFFFF;stroke:#263238;stroke-linecap:round;stroke-linejoin:round;stroke-miterlimit:10;" d="M370.903,152.273
			c0,0-4.312-8.265-11.14-3.593c-6.828,4.672-3.953,11.14-7.187,12.218c-3.234,1.078-5.75-2.875-8.984-1.078
			c-3.234,1.797-2.156,4.672-4.312,4.672c-2.156,0-6.109-1.797-7.906-1.078c-1.797,0.719-4.312,4.672-4.312,4.672
			s-18.327,1.078-16.171,3.234c2.156,2.156,53.544,0,53.544,0s-11.859,2.875-5.39,4.312c6.469,1.438,35.217,0,35.217,0
			s4.312-5.39,2.156-8.984c-2.156-3.594-10.421,0.359-12.218-1.797c-1.797-2.156,2.875-3.594-1.078-7.906
			C379.169,152.632,374.497,153.71,370.903,152.273z"/>
		<path style="opacity:0.51;fill:#C6FF00;" d="M394.262,175.631c0,0,4.312-5.39,2.156-8.984c-2.156-3.593-10.421,0.359-12.218-1.797
			c-1.742-2.091,2.573-3.514-0.765-7.528c-0.41-0.106-0.811-0.228-1.198-0.383c0,0-0.42-0.804-1.204-1.768
			c-2.948-1.917-6.101-1.806-8.818-2.484c-0.365,0.184-0.737,0.398-1.118,0.659c-6.828,4.672-3.953,11.14-7.187,12.218
			s-5.75-2.875-8.984-1.078c-3.234,1.797-2.156,4.672-4.312,4.672c-2.156,0-6.109-1.797-7.906-1.078
			c-1.347,0.539-3.097,2.894-3.89,4.04c12.995-0.272,25.617-0.801,25.617-0.801s-11.859,2.875-5.39,4.312
			c1.813,0.403,5.376,0.58,9.565,0.626c4.342-0.153,7.158-0.271,7.158-0.271s-0.395,0.096-0.997,0.26
			C384.29,176.13,394.262,175.631,394.262,175.631z"/>
	</g>
</g>
<g id="Space_Ship">
	<g>
		
			<line style="fill:none;stroke:#FFFFFF;stroke-linecap:round;stroke-linejoin:round;stroke-miterlimit:10;" x1="236.724" y1="138.626" x2="236.724" y2="142.315"/>
		<g>
			<g>
				<path style="fill:#263238;stroke:#263238;stroke-linecap:round;stroke-linejoin:round;stroke-miterlimit:10;" d="
					M294.057,252.842l34.021,67.027c1.101,2.17-0.475,4.738-2.908,4.738h-45.52c-2.552,0-4.621-2.069-4.621-4.621v-65.512
					L294.057,252.842z"/>
				<path style="fill:#FFFFFF;stroke:#000000;stroke-miterlimit:10;" d="M320.403,324.474l-36.008-70.803l-9.366,0.803v65.512
					c0,2.552,2.069,4.621,4.621,4.621h40.81C320.439,324.563,320.425,324.518,320.403,324.474z"/>
			</g>
			<g>
				<path style="fill:#263238;stroke:#263238;stroke-linecap:round;stroke-linejoin:round;stroke-miterlimit:10;" d="
					M203.935,252.842l-34.021,67.027c-1.101,2.17,0.475,4.738,2.908,4.738h45.52c2.552,0,4.621-2.069,4.621-4.621v-65.512
					L203.935,252.842z"/>
				<path style="fill:#FFFFFF;stroke:#000000;stroke-miterlimit:10;" d="M177.589,324.474l36.008-70.803l9.367,0.803v65.512
					c0,2.552-2.069,4.621-4.621,4.621h-40.81C177.553,324.563,177.567,324.518,177.589,324.474z"/>
				<path style="fill:#C6FF00;" d="M213.597,253.671l-27.502,54.077c9.65-6.878,22.238-13.797,36.868-17.089v-36.185
					L213.597,253.671z"/>
			</g>
			<g>
				<polygon style="fill:#C6FF00;stroke:#263238;stroke-linecap:round;stroke-linejoin:round;stroke-miterlimit:10;" points="
					233.227,297.228 221.114,318.207 245.339,318.207 				"/>
				<polygon style="fill:#C6FF00;stroke:#263238;stroke-linecap:round;stroke-linejoin:round;stroke-miterlimit:10;" points="
					264.955,297.228 252.842,318.207 277.067,318.207 				"/>
				
					<rect x="220.605" y="317.986" style="fill:#263238;stroke:#263238;stroke-linecap:round;stroke-linejoin:round;stroke-miterlimit:10;" width="25.051" height="4.521"/>
				
					<rect x="252.314" y="317.986" style="fill:#263238;stroke:#263238;stroke-linecap:round;stroke-linejoin:round;stroke-miterlimit:10;" width="25.051" height="4.521"/>
			</g>
		</g>
		<g>
			<path style="fill:#FFFFFF;stroke:#000000;stroke-miterlimit:10;" d="M253.344,84.807c-2.336-2.669-6.481-2.664-8.81,0.011
				c-11.542,13.261-41.814,51.479-41.814,87.561v105.472l16.681,30.446h59.309l16.681-30.446V172.38
				C295.391,136.287,264.94,98.057,253.344,84.807z"/>
		</g>
		<path style="fill:#C6FF00;" d="M248.677,87c0-1.883-5.315,9.329-9.07,14.227c0.066-0.415,0.128-0.828,0.195-1.244
			c0,0-22.288,28.417-28.974,55.162c0,0-0.958,3.559-1.672,8.358c-0.499,3.355-1.117,78.514-1.444,123.46l11.688,21.333h27.11h1.839
			c-0.579-2.185,0.969-12.277,0.327-14.917C248.677,235.31,248.677,90.727,248.677,87z"/>
		<g>
			
				<circle style="fill:none;stroke:#263238;stroke-linecap:round;stroke-linejoin:round;stroke-miterlimit:10;" cx="213.393" cy="274.534" r="1.491"/>
			
				<circle style="fill:none;stroke:#263238;stroke-linecap:round;stroke-linejoin:round;stroke-miterlimit:10;" cx="221.511" cy="274.534" r="1.491"/>
			
				<circle style="fill:none;stroke:#263238;stroke-linecap:round;stroke-linejoin:round;stroke-miterlimit:10;" cx="229.63" cy="274.534" r="1.491"/>
			
				<circle style="fill:none;stroke:#263238;stroke-linecap:round;stroke-linejoin:round;stroke-miterlimit:10;" cx="237.748" cy="274.534" r="1.491"/>
		</g>
		<g>
			
				<circle style="fill:none;stroke:#263238;stroke-linecap:round;stroke-linejoin:round;stroke-miterlimit:10;" cx="260.114" cy="274.534" r="1.491"/>
			
				<circle style="fill:none;stroke:#263238;stroke-linecap:round;stroke-linejoin:round;stroke-miterlimit:10;" cx="268.233" cy="274.534" r="1.491"/>
			
				<circle style="fill:none;stroke:#263238;stroke-linecap:round;stroke-linejoin:round;stroke-miterlimit:10;" cx="276.351" cy="274.534" r="1.491"/>
			
				<circle style="fill:none;stroke:#263238;stroke-linecap:round;stroke-linejoin:round;stroke-miterlimit:10;" cx="284.469" cy="274.534" r="1.491"/>
		</g>
		<g>
			
				<line style="fill:none;stroke:#263238;stroke-linecap:round;stroke-linejoin:round;stroke-miterlimit:10;" x1="208.153" y1="177.866" x2="208.153" y2="276.77"/>
			<path style="fill:none;stroke:#263238;stroke-linecap:round;stroke-linejoin:round;stroke-miterlimit:10;" d="M217.132,137.788
				c-4.374,9.706-7.715,20.132-8.689,30.514"/>
			<path style="fill:none;stroke:#263238;stroke-linecap:round;stroke-linejoin:round;stroke-miterlimit:10;" d="M253.563,91.644
				c-2.11-2.633-5.855-2.628-7.958,0.011c-5.426,6.808-15.434,20.284-23.785,36.66"/>
		</g>
		<g>
			<g id="XMLID_105_">
				<g id="XMLID_106_">
					<path style="fill:#263238;stroke:#263238;stroke-linecap:round;stroke-linejoin:round;stroke-miterlimit:10;" d="
						M269.068,187.231L269.068,187.231c-7.37,0-13.345-5.975-13.345-13.345l0,0c0-7.37,5.975-13.345,13.345-13.345l0,0
						c7.371,0,13.345,5.975,13.345,13.345l0,0C282.414,181.256,276.439,187.231,269.068,187.231z"/>
					<path style="fill:#FFFFFF;stroke:#263238;stroke-width:0.75;stroke-miterlimit:10;" d="M269.068,188.017
						c-7.792,0-14.132-6.339-14.132-14.132c0-7.792,6.339-14.132,14.132-14.132c7.792,0,14.132,6.339,14.132,14.132
						C283.2,181.678,276.861,188.017,269.068,188.017z M269.068,161.327c-6.925,0-12.559,5.634-12.559,12.559
						s5.634,12.559,12.559,12.559c6.925,0,12.559-5.634,12.559-12.559S275.994,161.327,269.068,161.327z"/>
				</g>
			</g>
			<g id="XMLID_100_">
				<path id="XMLID_102_" style="fill-rule:evenodd;clip-rule:evenodd;fill:#FFFFFF;" d="M276.759,173.563
					c-0.098-3.856-3.274-6.951-7.184-6.951c-3.863,0-7.012,3.025-7.18,6.82c-0.003,0.104-0.007,0.208-0.007,0.313
					c0,1.349,0.377,2.608,1.03,3.684l-1.296,3.826l3.98-1.265c1.03,0.565,2.214,0.888,3.472,0.888c3.97,0,7.187-3.193,7.187-7.133
					C276.763,173.684,276.763,173.623,276.759,173.563z M269.576,179.74c-1.228,0-2.369-0.363-3.324-0.993l-2.322,0.74l0.754-2.227
					c-0.723-0.989-1.151-2.204-1.151-3.516c0-0.195,0.01-0.39,0.03-0.582c0.296-3.035,2.88-5.414,6.013-5.414
					c3.173,0,5.781,2.439,6.023,5.528c0.013,0.155,0.02,0.31,0.02,0.468C275.619,177.052,272.907,179.74,269.576,179.74z"/>
				<path id="XMLID_101_" style="fill-rule:evenodd;clip-rule:evenodd;fill:#FFFFFF;" d="M272.87,175.185
					c-0.178-0.087-1.043-0.512-1.204-0.569c-0.162-0.061-0.279-0.087-0.397,0.088c-0.118,0.175-0.458,0.569-0.559,0.683
					c-0.104,0.118-0.205,0.131-0.384,0.044c-0.175-0.088-0.744-0.269-1.417-0.868c-0.521-0.461-0.878-1.033-0.979-1.208
					c-0.101-0.175-0.01-0.269,0.077-0.357c0.081-0.081,0.175-0.205,0.266-0.306c0.024-0.031,0.044-0.057,0.064-0.084
					c0.04-0.064,0.071-0.125,0.111-0.209c0.061-0.118,0.03-0.219-0.013-0.306c-0.044-0.087-0.397-0.949-0.545-1.299
					c-0.145-0.35-0.293-0.289-0.397-0.289c-0.101,0-0.219-0.017-0.336-0.017c-0.118,0-0.31,0.044-0.471,0.219
					c-0.161,0.175-0.616,0.599-0.616,1.46c0,0.202,0.037,0.404,0.091,0.596c0.178,0.616,0.562,1.124,0.629,1.211
					c0.087,0.114,1.218,1.938,3.008,2.641c1.793,0.697,1.793,0.464,2.116,0.434c0.323-0.027,1.043-0.421,1.188-0.831
					c0.148-0.407,0.148-0.757,0.104-0.831C273.162,175.316,273.044,175.272,272.87,175.185z"/>
			</g>
		</g>
		<g>
			<g id="XMLID_98_">
				<g id="XMLID_99_">
					<path style="fill:#263238;stroke:#263238;stroke-linecap:round;stroke-linejoin:round;stroke-miterlimit:10;" d="
						M250.239,216.567L250.239,216.567c-7.37,0-13.345-5.975-13.345-13.345l0,0c0-7.37,5.975-13.345,13.345-13.345h0
						c7.37,0,13.345,5.975,13.345,13.345l0,0C263.584,210.592,257.609,216.567,250.239,216.567z"/>
					<path style="fill:#FFFFFF;stroke:#263238;stroke-width:0.75;stroke-miterlimit:10;" d="M250.239,217.353
						c-7.793,0-14.132-6.339-14.132-14.132c0-7.792,6.339-14.132,14.132-14.132c7.792,0,14.132,6.339,14.132,14.132
						C264.37,211.014,258.03,217.353,250.239,217.353z M250.239,190.663c-6.925,0-12.559,5.634-12.559,12.559
						c0,6.925,5.634,12.559,12.559,12.559h0c6.925,0,12.559-5.634,12.559-12.559C262.797,196.297,257.164,190.663,250.239,190.663z"
						/>
				</g>
			</g>
			<g id="XMLID_94_">
				<path id="XMLID_96_" style="fill:#FFFFFF;" d="M258.21,199.191c-0.191-0.721-0.755-1.288-1.471-1.481
					c-1.298-0.35-6.501-0.35-6.501-0.35s-5.203,0-6.501,0.35c-0.716,0.193-1.28,0.76-1.471,1.481
					c-0.348,1.306-0.348,4.031-0.348,4.031s0,2.725,0.348,4.031c0.191,0.72,0.755,1.288,1.471,1.481
					c1.298,0.35,6.501,0.35,6.501,0.35s5.203,0,6.501-0.35c0.716-0.193,1.28-0.76,1.471-1.481c0.348-1.306,0.348-4.031,0.348-4.031
					S258.558,200.497,258.21,199.191z"/>
				<polygon id="XMLID_95_" style="fill:#263238;" points="248.537,205.696 248.537,200.748 252.886,203.222 				"/>
			</g>
		</g>
		<g>
			<g id="XMLID_92_">
				<g id="XMLID_93_">
					<path style="fill:#263238;stroke:#263238;stroke-linecap:round;stroke-linejoin:round;stroke-miterlimit:10;" d="
						M250.238,156.154L250.238,156.154c-7.37,0-13.345-5.975-13.345-13.345l0,0c0-7.37,5.975-13.345,13.345-13.345l0,0
						c7.371,0,13.345,5.975,13.345,13.345l0,0C263.584,150.179,257.609,156.154,250.238,156.154z"/>
					<path style="fill:#FFFFFF;stroke:#263238;stroke-width:0.75;stroke-miterlimit:10;" d="M250.238,156.94
						c-7.792,0-14.132-6.339-14.132-14.132c0-7.792,6.339-14.132,14.132-14.132c7.792,0,14.132,6.339,14.132,14.132
						C264.37,150.601,258.03,156.94,250.238,156.94z M250.238,130.25c-6.925,0-12.559,5.634-12.559,12.559
						c0,6.925,5.634,12.559,12.559,12.559c6.925,0,12.559-5.634,12.559-12.559C262.797,135.884,257.164,130.25,250.238,130.25z"/>
				</g>
			</g>
			<path id="XMLID_91_" style="fill:#FFFFFF;" d="M248.124,150.875h3.249v-8.135h2.266l0.242-2.724h-2.508c0,0,0-1.017,0-1.551
				c0-0.642,0.129-0.896,0.75-0.896c0.5,0,1.758,0,1.758,0v-2.827c0,0-1.854,0-2.249,0c-2.417,0-3.507,1.065-3.507,3.103
				c0,1.775,0,2.172,0,2.172h-1.69v2.758h1.69V150.875z"/>
		</g>
		<g>
			<g id="XMLID_89_">
				<g id="XMLID_90_">
					<path style="fill:#263238;stroke:#263238;stroke-linecap:round;stroke-linejoin:round;stroke-miterlimit:10;" d="
						M231.157,249.481L231.157,249.481c-7.37,0-13.345-5.975-13.345-13.345l0,0c0-7.37,5.975-13.345,13.345-13.345l0,0
						c7.37,0,13.345,5.975,13.345,13.345l0,0C244.502,243.506,238.527,249.481,231.157,249.481z"/>
					<path style="fill:#FFFFFF;stroke:#263238;stroke-width:0.75;stroke-miterlimit:10;" d="M231.157,250.267
						c-7.793,0-14.132-6.339-14.132-14.132c0-7.792,6.339-14.132,14.132-14.132c7.792,0,14.132,6.339,14.132,14.132
						C245.288,243.928,238.949,250.267,231.157,250.267z M231.157,223.576c-6.925,0-12.559,5.634-12.559,12.559
						c0,6.925,5.634,12.559,12.559,12.559c6.925,0,12.559-5.634,12.559-12.559C243.716,229.21,238.082,223.576,231.157,223.576z"/>
				</g>
			</g>
			<g id="XMLID_81_">
				<path id="XMLID_86_" style="fill:#FFFFFF;" d="M231.157,230.137c1.954,0,2.185,0.008,2.957,0.043
					c0.713,0.033,1.101,0.152,1.359,0.252c0.342,0.133,0.585,0.291,0.841,0.547c0.256,0.256,0.414,0.5,0.547,0.841
					c0.1,0.258,0.219,0.645,0.252,1.359c0.035,0.771,0.043,1.003,0.043,2.957c0,1.954-0.008,2.185-0.043,2.957
					c-0.033,0.714-0.152,1.101-0.252,1.359c-0.133,0.342-0.291,0.585-0.547,0.841c-0.256,0.256-0.5,0.415-0.841,0.547
					c-0.258,0.1-0.645,0.219-1.359,0.252c-0.771,0.035-1.003,0.043-2.957,0.043s-2.185-0.007-2.957-0.043
					c-0.713-0.033-1.101-0.152-1.359-0.252c-0.342-0.133-0.585-0.291-0.841-0.547c-0.256-0.256-0.415-0.5-0.547-0.841
					c-0.1-0.258-0.219-0.645-0.252-1.359c-0.035-0.771-0.042-1.003-0.042-2.957c0-1.954,0.007-2.185,0.042-2.957
					c0.033-0.714,0.152-1.101,0.252-1.359c0.133-0.341,0.291-0.585,0.547-0.841c0.256-0.256,0.5-0.415,0.841-0.547
					c0.258-0.1,0.645-0.219,1.359-0.252C228.971,230.144,229.203,230.137,231.157,230.137 M231.157,228.818
					c-1.987,0-2.236,0.008-3.017,0.044c-0.779,0.035-1.311,0.159-1.776,0.34c-0.481,0.187-0.889,0.437-1.296,0.844
					c-0.407,0.407-0.657,0.815-0.844,1.296c-0.181,0.465-0.305,0.997-0.34,1.776c-0.036,0.781-0.044,1.03-0.044,3.017
					c0,1.987,0.008,2.236,0.044,3.017c0.035,0.779,0.159,1.311,0.34,1.776c0.187,0.481,0.437,0.889,0.844,1.296
					c0.407,0.407,0.815,0.657,1.296,0.844c0.465,0.181,0.997,0.305,1.776,0.34c0.78,0.036,1.03,0.044,3.017,0.044
					c1.987,0,2.236-0.008,3.017-0.044c0.779-0.036,1.311-0.159,1.776-0.34c0.481-0.187,0.889-0.437,1.296-0.844
					c0.407-0.407,0.657-0.815,0.844-1.296c0.181-0.465,0.305-0.997,0.34-1.776c0.036-0.781,0.044-1.03,0.044-3.017
					c0-1.987-0.008-2.236-0.044-3.017c-0.036-0.779-0.159-1.311-0.34-1.776c-0.187-0.481-0.437-0.889-0.844-1.296
					c-0.407-0.407-0.815-0.657-1.296-0.844c-0.465-0.181-0.997-0.305-1.776-0.34C233.393,228.827,233.144,228.818,231.157,228.818"
					/>
				<path id="XMLID_83_" style="fill:#FFFFFF;" d="M231.157,232.378c-2.075,0-3.757,1.682-3.757,3.758
					c0,2.075,1.682,3.757,3.757,3.757c2.075,0,3.758-1.682,3.758-3.757C234.914,234.061,233.232,232.378,231.157,232.378
					 M231.157,238.575c-1.347,0-2.439-1.092-2.439-2.439c0-1.347,1.092-2.439,2.439-2.439c1.347,0,2.439,1.092,2.439,2.439
					C233.596,237.483,232.504,238.575,231.157,238.575"/>
				<path id="XMLID_82_" style="fill:#FFFFFF;" d="M235.941,232.23c0,0.485-0.393,0.878-0.878,0.878
					c-0.485,0-0.878-0.393-0.878-0.878c0-0.485,0.393-0.878,0.878-0.878C235.548,231.352,235.941,231.745,235.941,232.23"/>
			</g>
		</g>
		<g>
			<g id="XMLID_67_">
				<g id="XMLID_68_">
					<path style="fill:#263238;stroke:#263238;stroke-linecap:round;stroke-linejoin:round;stroke-miterlimit:10;" d="
						M230.157,187.231L230.157,187.231c-7.37,0-13.345-5.975-13.345-13.345l0,0c0-7.37,5.975-13.345,13.345-13.345l0,0
						c7.37,0,13.345,5.975,13.345,13.345l0,0C243.502,181.256,237.527,187.231,230.157,187.231z"/>
					<path style="fill:#FFFFFF;stroke:#263238;stroke-width:0.75;stroke-miterlimit:10;" d="M230.157,188.018
						c-7.792,0-14.132-6.339-14.132-14.132c0-7.792,6.339-14.132,14.132-14.132c7.792,0,14.132,6.339,14.132,14.132
						C244.288,181.678,237.949,188.018,230.157,188.018z M230.157,161.327c-6.925,0-12.559,5.634-12.559,12.559
						c0,6.925,5.634,12.559,12.559,12.559c6.925,0,12.559-5.634,12.559-12.559C242.716,166.961,237.082,161.327,230.157,161.327z"/>
				</g>
			</g>
			<path id="XMLID_66_" style="fill:#FFFFFF;" d="M223.046,178.353c1.291,0.828,2.825,1.311,4.472,1.311
				c5.417,0,8.477-4.575,8.293-8.679c0.57-0.411,1.065-0.925,1.456-1.51c-0.523,0.232-1.086,0.389-1.676,0.459
				c0.602-0.36,1.065-0.932,1.282-1.614c-0.564,0.334-1.188,0.577-1.852,0.708c-0.533-0.567-1.291-0.921-2.13-0.921
				c-1.883,0-3.267,1.757-2.842,3.582c-2.425-0.122-4.575-1.283-6.013-3.049c-0.764,1.312-0.396,3.027,0.903,3.896
				c-0.479-0.015-0.929-0.147-1.322-0.365c-0.031,1.352,0.937,2.616,2.34,2.898c-0.411,0.112-0.86,0.137-1.317,0.05
				c0.371,1.16,1.448,2.003,2.725,2.026C226.139,178.107,224.594,178.536,223.046,178.353z"/>
		</g>
		<g>
			<g>
				<g id="XMLID_24_">
					<g id="XMLID_65_">
						<path style="fill:#263238;stroke:#263238;stroke-linecap:round;stroke-linejoin:round;stroke-miterlimit:10;" d="
							M267.718,249.481L267.718,249.481c-7.37,0-13.345-5.975-13.345-13.345l0,0c0-7.37,5.975-13.345,13.345-13.345l0,0
							c7.37,0,13.345,5.975,13.345,13.345l0,0C281.063,243.506,275.088,249.481,267.718,249.481z"/>
						<path style="fill:#FFFFFF;stroke:#263238;stroke-width:0.75;stroke-miterlimit:10;" d="M267.718,250.267
							c-7.792,0-14.132-6.339-14.132-14.132c0-7.792,6.339-14.132,14.132-14.132c7.792,0,14.132,6.339,14.132,14.132
							C281.849,243.928,275.51,250.267,267.718,250.267z M267.718,223.576c-6.925,0-12.559,5.634-12.559,12.559
							c0,6.925,5.634,12.559,12.559,12.559c6.925,0,12.559-5.634,12.559-12.559C280.277,229.21,274.643,223.576,267.718,223.576z"/>
					</g>
				</g>
			</g>
			<g id="XMLID_1434_">
				<g id="XMLID_1436_">
					<rect id="XMLID_1438_" x="261.294" y="232.846" style="fill:#FFFFFF;" width="2.762" height="8.923"/>
					<path id="XMLID_1437_" style="fill:#FFFFFF;" d="M262.662,231.678c0.902,0,1.633-0.738,1.633-1.647
						c0-0.909-0.731-1.646-1.633-1.646c-0.902,0-1.633,0.737-1.633,1.646C261.029,230.94,261.76,231.678,262.662,231.678z"/>
				</g>
				<path id="XMLID_1435_" style="fill:#FFFFFF;" d="M268.471,237.085c0-1.254,0.577-2.002,1.683-2.002
					c1.016,0,1.504,0.717,1.504,2.002c0,1.285,0,4.684,0,4.684h2.749c0,0,0-3.259,0-5.649c0-2.39-1.355-3.546-3.246-3.546
					c-1.893,0-2.689,1.474-2.689,1.474v-1.202h-2.649v8.923h2.649C268.471,241.769,268.471,238.46,268.471,237.085z"/>
			</g>
		</g>
		<path style="fill:#263238;stroke:#263238;stroke-linecap:round;stroke-linejoin:round;stroke-miterlimit:10;" d="M249.056,326.829
			L249.056,326.829c-1.104,0-1.998-0.895-1.998-1.998l-2.079-70.086c0-2.252,1.826-4.078,4.077-4.078l0,0
			c2.252,0,4.077,1.826,4.077,4.078l-2.079,70.086C251.054,325.935,250.159,326.829,249.056,326.829z"/>
		
			<line style="fill:none;stroke:#263238;stroke-linecap:round;stroke-linejoin:round;stroke-miterlimit:10;" x1="249.134" y1="362.653" x2="249.134" y2="367.319"/>
		<g>
			<path style="fill:#263238;stroke:#263238;stroke-linecap:round;stroke-linejoin:round;stroke-miterlimit:10;" d="M244.534,84.818
				c-4.756,5.465-12.693,15.169-20.381,27.214h49.691c-7.735-12.053-15.719-21.763-20.5-27.225
				C251.008,82.137,246.863,82.143,244.534,84.818z"/>
			<g>
				<circle style="fill:#FFFFFF;" cx="236.768" cy="109.146" r="1.491"/>
				<path style="fill:#FFFFFF;" d="M246.377,109.146c0,0.824-0.668,1.491-1.491,1.491c-0.824,0-1.491-0.668-1.491-1.491
					c0-0.824,0.668-1.491,1.491-1.491C245.709,107.655,246.377,108.322,246.377,109.146z"/>
				<circle style="fill:#FFFFFF;" cx="253.004" cy="109.146" r="1.491"/>
				<circle style="fill:#FFFFFF;" cx="261.122" cy="109.146" r="1.491"/>
			</g>
			<path style="fill:none;stroke:#FFFFFF;stroke-linecap:round;stroke-linejoin:round;stroke-miterlimit:10;" d="M233.105,109.329
				c0,0,10.054-16.087,14.076-21.023"/>
		</g>
		<g>
			<polygon style="fill:#263238;stroke:#263238;stroke-linecap:round;stroke-linejoin:round;stroke-miterlimit:10;" points="
				278.711,308.297 295.391,277.851 202.72,277.851 219.401,308.297 			"/>
			<g>
				<path style="fill:#FFFFFF;" d="M221.94,291.789c-0.254,0.109-0.372,0.403-0.263,0.657l1.505,3.512
					c0.081,0.189,0.266,0.303,0.46,0.303c0.065,0,0.132-0.013,0.196-0.04c0.254-0.109,0.372-0.403,0.263-0.657l-1.505-3.512
					C222.487,291.798,222.191,291.681,221.94,291.789z"/>
				<path style="fill:#FFFFFF;" d="M224.492,285.826c0.082,0.188,0.266,0.299,0.458,0.299c0.067,0,0.135-0.014,0.201-0.042
					c0.253-0.111,0.368-0.406,0.256-0.659l-3.33-7.573h-1.092L224.492,285.826z"/>
				<path style="fill:#FFFFFF;" d="M272.258,294.427c0.068,0.032,0.141,0.047,0.212,0.047c0.188,0,0.368-0.106,0.453-0.288
					l7.636-16.334h-1.104l-7.438,15.91C271.899,294.012,272.008,294.31,272.258,294.427z"/>
				<path style="fill:#FFFFFF;" d="M223.51,307.404c0.082,0.188,0.266,0.3,0.459,0.3c0.066,0,0.134-0.014,0.199-0.042
					c0.253-0.11,0.369-0.404,0.259-0.658l-12.711-29.153h-1.092L223.51,307.404z"/>
				<path style="fill:#FFFFFF;" d="M286.299,277.851l-13.153,26.931c-0.121,0.248-0.018,0.548,0.23,0.669
					c0.071,0.034,0.145,0.051,0.22,0.051c0.185,0,0.362-0.104,0.449-0.28l13.367-27.37H286.299z"/>
				<path style="fill:#FFFFFF;" d="M220.713,290.196c0.082,0.19,0.266,0.304,0.46,0.304c0.066,0,0.132-0.013,0.197-0.04
					c0.254-0.108,0.372-0.402,0.263-0.656l-5.111-11.952h-1.088L220.713,290.196z"/>
			</g>
		</g>
		<g>
			<g>
				
					<line style="fill:none;stroke:#263238;stroke-linecap:round;stroke-linejoin:round;stroke-miterlimit:10;" x1="297.485" y1="190.929" x2="297.485" y2="194.227"/>
				
					<line style="fill:none;stroke:#263238;stroke-linecap:round;stroke-linejoin:round;stroke-miterlimit:10;" x1="297.485" y1="171.507" x2="297.485" y2="188.73"/>
				
					<line style="fill:none;stroke:#263238;stroke-linecap:round;stroke-linejoin:round;stroke-miterlimit:10;" x1="299.447" y1="207.756" x2="299.447" y2="221.457"/>
				<path style="fill:#FFFFFF;stroke:#263238;stroke-miterlimit:10;" d="M299.105,176.098c0,0.013,0,29.245,0,29.245
					s0.76,0,1.139-2.089c0.38-2.089-0.38-6.267,0.57-7.976c0.95-1.709,2.279-2.849,2.849-4.558c0.57-1.709-1.329-3.038-0.57-5.887
					c0.76-2.848,3.988-1.329,3.418-5.13c-0.303-2.015-2.517-2.704-4.068-3.587c-0.483-0.275-0.999-0.587-1.203-1.104
					c-0.31-0.783,0.67-2.562-0.017-3.138c-0.76-0.637-1.676,0.348-1.98,1.01C298.828,173.788,299.105,175.133,299.105,176.098z"/>
			</g>
			<g>
				
					<line style="fill:none;stroke:#263238;stroke-linecap:round;stroke-linejoin:round;stroke-miterlimit:10;" x1="172.351" y1="342.604" x2="172.351" y2="380.186"/>
				<path style="fill:#FFFFFF;stroke:#263238;stroke-miterlimit:10;" d="M172.414,326.256c0,0.007,0,14.589,0,14.589
					s-0.379,0-0.568-1.042c-0.189-1.042,0.189-3.126-0.284-3.979c-0.474-0.853-1.137-1.421-1.421-2.273
					c-0.284-0.853,0.663-1.516,0.284-2.937c-0.379-1.421-1.989-0.663-1.705-2.559c0.151-1.005,1.255-1.349,2.029-1.789
					c0.241-0.137,0.498-0.293,0.6-0.551c0.154-0.391-0.334-1.278,0.008-1.565c0.379-0.318,0.836,0.174,0.988,0.504
					C172.552,325.104,172.414,325.775,172.414,326.256z"/>
			</g>
			<g>
				
					<line style="fill:none;stroke:#263238;stroke-linecap:round;stroke-linejoin:round;stroke-miterlimit:10;" x1="198.915" y1="177.169" x2="198.915" y2="192.495"/>
				
					<line style="fill:none;stroke:#263238;stroke-linecap:round;stroke-linejoin:round;stroke-miterlimit:10;" x1="198.915" y1="195.859" x2="198.915" y2="201.471"/>
				
					<line style="fill:none;stroke:#263238;stroke-linecap:round;stroke-linejoin:round;stroke-miterlimit:10;" x1="197.082" y1="228.589" x2="197.082" y2="234.201"/>
				<path style="fill:#FFFFFF;stroke:#263238;stroke-miterlimit:10;" d="M197.467,178.347c0,0.022,0,48.043,0,48.043
					s-0.76,0-1.139-3.432c-0.38-3.432,0.38-10.295-0.57-13.103c-0.949-2.808-2.279-4.68-2.848-7.487
					c-0.57-2.808,1.329-4.991,0.57-9.671c-0.76-4.679-3.988-2.184-3.418-8.427c0.303-3.311,2.517-4.442,4.068-5.893
					c0.483-0.451,0.999-0.964,1.204-1.813c0.31-1.286-0.67-4.209,0.017-5.154c0.76-1.046,1.676,0.572,1.98,1.66
					C197.744,174.553,197.467,176.762,197.467,178.347z"/>
			</g>
			
				<line style="fill:none;stroke:#263238;stroke-linecap:round;stroke-linejoin:round;stroke-miterlimit:10;" x1="249.134" y1="331.158" x2="249.134" y2="359.154"/>
			<g>
				
					<line style="fill:none;stroke:#263238;stroke-linecap:round;stroke-linejoin:round;stroke-miterlimit:10;" x1="202.316" y1="310.458" x2="202.316" y2="313.756"/>
				
					<line style="fill:none;stroke:#263238;stroke-linecap:round;stroke-linejoin:round;stroke-miterlimit:10;" x1="202.316" y1="291.035" x2="202.316" y2="308.259"/>
				
					<line style="fill:none;stroke:#263238;stroke-linecap:round;stroke-linejoin:round;stroke-miterlimit:10;" x1="200.355" y1="327.284" x2="200.355" y2="359.531"/>
				<path style="fill:#FFFFFF;stroke:#263238;stroke-miterlimit:10;" d="M200.696,295.626c0,0.013,0,29.245,0,29.245
					s-0.76,0-1.139-2.089c-0.38-2.089,0.38-6.267-0.57-7.976c-0.949-1.709-2.279-2.848-2.848-4.558
					c-0.57-1.709,1.329-3.038,0.57-5.887c-0.76-2.848-3.988-1.329-3.418-5.13c0.303-2.015,2.517-2.704,4.068-3.587
					c0.483-0.275,0.999-0.587,1.203-1.104c0.31-0.783-0.67-2.562,0.017-3.138c0.76-0.637,1.676,0.348,1.98,1.01
					C200.973,293.316,200.696,294.661,200.696,295.626z"/>
			</g>
			<g>
				
					<line style="fill:none;stroke:#263238;stroke-linecap:round;stroke-linejoin:round;stroke-miterlimit:10;" x1="324.78" y1="342.604" x2="324.78" y2="358.056"/>
				<path style="fill:#FFFFFF;stroke:#263238;stroke-miterlimit:10;" d="M324.717,326.256c0,0.007,0,14.589,0,14.589
					s0.379,0,0.568-1.042c0.19-1.042-0.189-3.126,0.284-3.979c0.474-0.853,1.137-1.421,1.421-2.273
					c0.284-0.853-0.663-1.516-0.284-2.937c0.379-1.421,1.989-0.663,1.705-2.559c-0.151-1.005-1.255-1.349-2.03-1.789
					c-0.241-0.137-0.498-0.293-0.6-0.551c-0.155-0.391,0.334-1.278-0.008-1.565c-0.379-0.318-0.836,0.174-0.988,0.504
					C324.579,325.104,324.717,325.775,324.717,326.256z"/>
			</g>
			<g>
				
					<line style="fill:none;stroke:#263238;stroke-linecap:round;stroke-linejoin:round;stroke-miterlimit:10;" x1="293.669" y1="323.872" x2="293.669" y2="327.171"/>
				
					<line style="fill:none;stroke:#263238;stroke-linecap:round;stroke-linejoin:round;stroke-miterlimit:10;" x1="293.669" y1="304.45" x2="293.669" y2="321.674"/>
				
					<line style="fill:none;stroke:#263238;stroke-linecap:round;stroke-linejoin:round;stroke-miterlimit:10;" x1="295.63" y1="340.699" x2="295.63" y2="397.153"/>
				<path style="fill:#FFFFFF;stroke:#263238;stroke-miterlimit:10;" d="M295.288,309.041c0,0.013,0,29.245,0,29.245
					s0.76,0,1.139-2.089s-0.38-6.267,0.57-7.976c0.95-1.709,2.279-2.848,2.849-4.558s-1.329-3.038-0.57-5.887
					c0.759-2.848,3.987-1.329,3.418-5.13c-0.303-2.015-2.517-2.704-4.068-3.587c-0.483-0.275-0.999-0.587-1.203-1.104
					c-0.31-0.783,0.67-2.562-0.017-3.138c-0.76-0.637-1.676,0.348-1.98,1.01C295.011,306.731,295.288,308.076,295.288,309.041z"/>
			</g>
		</g>
	</g>
</g>
</svg>
