<svg width="296" height="262" viewBox="0 0 296 262" fill="none" xmlns="http://www.w3.org/2000/svg">
<path d="M146.949 222.336C206.781 222.336 255.285 173.832 255.285 114C255.285 54.1677 206.781 5.66406 146.949 5.66406C87.1163 5.66406 38.6126 54.1677 38.6126 114C38.6126 173.832 87.1163 222.336 146.949 222.336Z" fill="#F2E6DC"/>
<path d="M222.679 42.8512H67.3278V52.6432H222.679V42.8513L222.679 42.8512Z" fill="white"/>
<path d="M222.679 153.31H67.3279C67.2626 153.31 67.2095 153.257 67.2095 153.191V42.8513C67.2095 42.786 67.2626 42.7329 67.3279 42.7329H222.679C222.745 42.7329 222.798 42.786 222.798 42.8513L222.798 153.191C222.798 153.223 222.785 153.253 222.763 153.275C222.741 153.297 222.711 153.31 222.679 153.31ZM67.4463 153.073H222.561L222.561 42.9696H67.4463V153.073Z" fill="white"/>
<path d="M76.0259 48.2558C76.2697 47.0502 75.4899 45.8752 74.2843 45.6314C73.0786 45.3876 71.9036 46.1674 71.6599 47.373C71.4161 48.5787 72.1958 49.7537 73.4015 49.9974C74.6071 50.2412 75.7821 49.4615 76.0259 48.2558Z" fill="#F2E6DC"/>
<path d="M82.8137 49.1528C83.5505 48.1679 83.3494 46.7723 82.3645 46.0355C81.3797 45.2987 79.984 45.4998 79.2472 46.4847C78.5105 47.4696 78.7116 48.8652 79.6964 49.602C80.6813 50.3387 82.077 50.1376 82.8137 49.1528Z" fill="#F2E6DC"/>
<path d="M90.0095 49.1531C90.7462 48.1683 90.5451 46.7726 89.5603 46.0359C88.5754 45.2991 87.1798 45.5002 86.443 46.4851C85.7062 47.4699 85.9073 48.8656 86.8922 49.6023C87.8771 50.3391 89.2727 50.138 90.0095 49.1531Z" fill="#F2E6DC"/>
<path d="M184.673 191.27C196.031 194.075 206.868 189.752 208.878 181.613C210.888 173.475 203.31 164.603 191.952 161.798C180.593 158.993 172.525 164 170.515 172.139C168.505 180.277 173.315 188.465 184.673 191.27Z" fill="white"/>
<path d="M190.918 190.507C188.684 190.507 186.358 190.232 184.01 189.652C178.581 188.311 174.376 185.679 171.849 182.039C169.488 178.638 168.748 174.497 169.765 170.377C170.783 166.258 173.366 162.937 177.038 161.026C180.969 158.981 185.917 158.609 191.345 159.95C196.862 161.312 201.67 164.134 204.883 167.895C208.106 171.667 209.34 175.934 208.358 179.908C206.752 186.411 199.533 190.507 190.918 190.507ZM184.067 189.422C195.342 192.207 206.137 187.914 208.129 179.851C209.091 175.953 207.875 171.762 204.703 168.049C201.522 164.325 196.758 161.531 191.288 160.18C185.917 158.853 181.027 159.219 177.148 161.236C173.536 163.115 170.996 166.382 169.995 170.434C167.836 179.179 173.49 186.81 184.067 189.422Z" fill="#363E44"/>
<path d="M181.244 188.572C181.234 188.572 181.225 188.571 181.215 188.569C181.152 188.553 181.113 188.489 181.129 188.425L188.282 159.458C188.298 159.394 188.362 159.355 188.426 159.371C188.489 159.387 188.528 159.451 188.512 159.514L181.358 188.482C181.345 188.536 181.297 188.572 181.244 188.572Z" fill="#363E44"/>
<path d="M184.68 174.269C184.671 174.269 184.661 174.268 184.652 174.265L170.054 170.66C169.991 170.645 169.952 170.581 169.968 170.517C169.983 170.453 170.048 170.415 170.111 170.431L184.709 174.036C184.772 174.051 184.811 174.115 184.795 174.179C184.782 174.233 184.733 174.269 184.68 174.269Z" fill="#363E44"/>
<path d="M228.981 208.295C228.981 208.295 219.166 203.282 213.05 200.421C210.282 199.126 208.093 198.313 206.828 198.227C206.038 198.173 204.643 198.085 202.929 197.483C196.576 195.252 193.047 187.945 188.175 181.878C186.176 179.388 176.904 178.961 177.147 175.94C177.272 174.377 179.892 173.567 185.442 174.016C185.442 174.016 185.443 174.015 185.442 174.015C181.264 173.19 175.647 171.823 176.11 169.515C176.787 166.879 183.575 167.71 187.657 168.414C182.716 167.562 180.344 165.632 180.922 164.409C181.833 162.485 185.818 162.254 192.304 163.632C192.305 163.632 192.305 163.632 192.305 163.632C188.092 161.429 187.398 160.267 188.173 159.311C189.588 157.566 195.495 158.574 200.023 160.384C205.121 162.422 212.436 168.679 215.053 170.024C217.559 171.312 257.387 189.415 257.387 189.415L228.981 208.295Z" fill="#BC8271"/>
<path d="M197.669 188.473C188.933 188.547 185.798 190.424 185.853 191.809C185.947 194.136 192.837 196.603 205.618 198.104C203.492 195.061 199.795 191.515 197.669 188.473Z" fill="#BC8271"/>
<path d="M197.188 192.811C197.161 192.811 197.135 192.803 197.113 192.784C195.709 191.626 194.127 190.238 193.037 188.723C192.999 188.67 193.011 188.596 193.064 188.558C193.117 188.52 193.191 188.532 193.23 188.585C194.304 190.078 195.871 191.453 197.263 192.602C197.314 192.643 197.321 192.718 197.279 192.768C197.256 192.797 197.222 192.811 197.188 192.811Z" fill="#363E44"/>
<path d="M193.617 178.573C193.589 178.573 193.561 178.563 193.538 178.543C193.446 178.462 193.335 178.361 193.209 178.245C192.422 177.527 190.959 176.19 189.678 175.646C188.195 175.016 186.634 174.459 185.282 174.08C185.219 174.062 185.182 173.997 185.2 173.934C185.218 173.871 185.283 173.834 185.346 173.852C186.707 174.234 188.279 174.794 189.77 175.428C191.089 175.988 192.572 177.343 193.369 178.07C193.494 178.185 193.604 178.285 193.695 178.366C193.744 178.41 193.749 178.484 193.705 178.533C193.682 178.56 193.649 178.573 193.617 178.573Z" fill="#363E44"/>
<path d="M197.579 172.791C197.555 172.791 197.53 172.784 197.509 172.769C196.374 171.937 195.13 171.201 193.812 170.583C191.897 169.684 189.81 169.022 187.607 168.615C187.543 168.603 187.5 168.541 187.512 168.476C187.524 168.412 187.586 168.37 187.65 168.382C189.873 168.793 191.98 169.461 193.912 170.368C195.245 170.993 196.502 171.737 197.649 172.578C197.702 172.616 197.713 172.69 197.674 172.743C197.651 172.775 197.615 172.791 197.579 172.791Z" fill="#363E44"/>
<path d="M200.981 167.3C200.957 167.3 200.934 167.294 200.914 167.279C199.865 166.557 198.743 165.93 197.58 165.414C195.891 164.666 194.099 164.144 192.253 163.863C192.189 163.853 192.144 163.793 192.154 163.728C192.164 163.664 192.225 163.619 192.289 163.629C194.156 163.913 195.968 164.44 197.676 165.198C198.853 165.719 199.987 166.354 201.048 167.084C201.102 167.122 201.115 167.195 201.078 167.249C201.055 167.282 201.018 167.3 200.981 167.3Z" fill="#363E44"/>
<path d="M208.705 21.7943H151.212V79.2876H208.705V21.7943Z" fill="#E6D0BE"/>
<path d="M162.611 38.7865C162.581 38.7865 162.55 38.7749 162.527 38.7518L157.197 33.422L162.527 28.0922C162.574 28.0459 162.648 28.0459 162.695 28.0922C162.741 28.1384 162.741 28.2135 162.695 28.2596L157.532 33.422L162.695 38.5844C162.741 38.6305 162.741 38.7056 162.695 38.7518C162.672 38.775 162.641 38.7865 162.611 38.7865Z" fill="white"/>
<path d="M171.204 38.7865C171.174 38.7865 171.144 38.7749 171.121 38.7518C171.074 38.7056 171.074 38.6305 171.121 38.5844L176.283 33.422L171.121 28.2596C171.074 28.2135 171.074 28.1384 171.121 28.0922C171.167 28.0459 171.242 28.0459 171.288 28.0922L176.618 33.422L171.288 38.7518C171.265 38.775 171.235 38.7865 171.204 38.7865Z" fill="white"/>
<path d="M164.663 38.4634C164.646 38.4634 164.63 38.46 164.614 38.4526C164.554 38.4254 164.528 38.3551 164.555 38.2956L169.083 28.4129C169.111 28.3535 169.181 28.3273 169.24 28.3545C169.3 28.3818 169.326 28.4521 169.299 28.5115L164.771 38.3943C164.751 38.4377 164.708 38.4634 164.663 38.4634Z" fill="white"/>
<path d="M205.159 26.6477H182.945V40.2744H205.159V26.6477Z" fill="#F2E6DC"/>
<path d="M186.928 45.4326H157.061C156.996 45.4326 156.943 45.3796 156.943 45.3142C156.943 45.2488 156.996 45.1958 157.061 45.1958H186.928C186.993 45.1958 187.046 45.2488 187.046 45.3142C187.046 45.3796 186.993 45.4326 186.928 45.4326Z" fill="white"/>
<path d="M204.117 51.1622H177.846C177.78 51.1622 177.727 51.1092 177.727 51.0438C177.727 50.9785 177.78 50.9254 177.846 50.9254H204.117C204.182 50.9254 204.235 50.9785 204.235 51.0438C204.235 51.1092 204.182 51.1622 204.117 51.1622Z" fill="white"/>
<path d="M172.116 51.1622H157.061C156.996 51.1622 156.943 51.1092 156.943 51.0438C156.943 50.9785 156.996 50.9254 157.061 50.9254H172.116C172.182 50.9254 172.235 50.9785 172.235 51.0438C172.235 51.1092 172.182 51.1622 172.116 51.1622Z" fill="white"/>
<path d="M204.117 56.8918H190.912C190.847 56.8918 190.794 56.8388 190.794 56.7734C190.794 56.7081 190.847 56.655 190.912 56.655H204.117C204.182 56.655 204.235 56.7081 204.235 56.7734C204.235 56.8389 204.182 56.8918 204.117 56.8918Z" fill="white"/>
<path d="M185.183 56.8918H157.061C156.996 56.8918 156.943 56.8388 156.943 56.7734C156.943 56.7081 156.996 56.655 157.061 56.655H185.183C185.248 56.655 185.301 56.7081 185.301 56.7734C185.301 56.8389 185.248 56.8918 185.183 56.8918Z" fill="white"/>
<path d="M195.522 62.6214H157.061C156.996 62.6214 156.943 62.5684 156.943 62.503C156.943 62.4377 156.996 62.3846 157.061 62.3846H195.522C195.588 62.3846 195.64 62.4377 195.64 62.503C195.64 62.5685 195.588 62.6214 195.522 62.6214Z" fill="white"/>
<path d="M152.816 165.493C152.781 165.493 152.747 165.477 152.723 165.448L148.564 160.194L144.404 165.448C144.364 165.499 144.29 165.508 144.238 165.467C144.187 165.427 144.178 165.352 144.219 165.301L148.471 159.93C148.516 159.873 148.612 159.873 148.657 159.93L152.909 165.301C152.95 165.352 152.941 165.427 152.89 165.467C152.868 165.484 152.842 165.493 152.816 165.493Z" fill="#E6D0BE"/>
<path d="M148.564 173.284C148.498 173.284 148.445 173.231 148.445 173.166V160.437C148.445 160.372 148.498 160.318 148.564 160.318C148.629 160.318 148.682 160.372 148.682 160.437V173.166C148.682 173.231 148.629 173.284 148.564 173.284Z" fill="#E6D0BE"/>
<path d="M137.956 180.353C137.93 180.353 137.904 180.345 137.882 180.327L132.511 176.075C132.483 176.053 132.466 176.018 132.466 175.982C132.466 175.946 132.483 175.912 132.511 175.889L137.882 171.637C137.934 171.596 138.008 171.605 138.049 171.656C138.089 171.708 138.081 171.782 138.03 171.823L132.775 175.982L138.03 180.142C138.081 180.182 138.089 180.257 138.049 180.308C138.026 180.338 137.991 180.353 137.956 180.353Z" fill="#E6D0BE"/>
<path d="M145.747 176.101H133.018C132.953 176.101 132.9 176.048 132.9 175.982C132.9 175.917 132.953 175.864 133.018 175.864H145.747C145.813 175.864 145.866 175.917 145.866 175.982C145.866 176.048 145.813 176.101 145.747 176.101Z" fill="#E6D0BE"/>
<path d="M159.172 180.353C159.137 180.353 159.102 180.338 159.079 180.308C159.038 180.257 159.047 180.183 159.098 180.142L164.352 175.982L159.098 171.823C159.047 171.782 159.038 171.708 159.079 171.657C159.119 171.605 159.194 171.597 159.245 171.637L164.616 175.89C164.645 175.912 164.661 175.946 164.661 175.982C164.661 176.019 164.645 176.053 164.616 176.075L159.245 180.328C159.223 180.345 159.197 180.353 159.172 180.353Z" fill="#E6D0BE"/>
<path d="M164.109 176.101H151.38C151.315 176.101 151.262 176.048 151.262 175.982C151.262 175.917 151.315 175.864 151.38 175.864H164.109C164.175 175.864 164.228 175.917 164.228 175.982C164.228 176.048 164.175 176.101 164.109 176.101Z" fill="#E6D0BE"/>
<path d="M203.091 111.23H170.773C166.112 111.23 162.32 107.438 162.32 102.777C162.32 98.1157 166.112 94.3236 170.773 94.3236H203.091C207.752 94.3236 211.544 98.1156 211.544 102.777C211.544 107.438 207.752 111.23 203.091 111.23ZM170.773 94.5604C166.242 94.5604 162.557 98.2462 162.557 102.777C162.557 107.307 166.242 110.993 170.773 110.993H203.091C207.622 110.993 211.308 107.307 211.308 102.777C211.308 98.2463 207.622 94.5604 203.091 94.5604H170.773Z" fill="#EFBC73"/>
<path d="M145.305 94.1499H74.0346C73.9691 94.1499 73.9162 94.0969 73.9162 94.0315V84.9403C73.9162 84.8749 73.9691 84.8219 74.0346 84.8219H145.305C145.37 84.8219 145.423 84.8749 145.423 84.9403V94.0315C145.423 94.097 145.37 94.1499 145.305 94.1499ZM74.153 93.9131H145.186V85.0587H74.153V93.9131Z" fill="#EFBC73"/>
<path d="M254.744 93.2042C250.548 91.0496 233.992 81.7511 225.873 76.527C223.742 73.5673 217.993 65.3873 207.805 61.802C197.615 58.2159 185.687 61.8215 185.712 64.6294C185.723 65.9429 187.579 68.7117 191.128 67.7948C195.395 66.6929 197.635 67.4803 200.577 68.2247C200.141 68.4312 197.65 69.0283 197.092 71.2344C196.523 73.4794 197.949 75.7325 198.157 76.0946C196.875 77.3248 195.808 78.413 195.872 80.6703C195.947 83.3395 198.158 84.8694 198.158 84.8694C198.158 84.8694 196.705 87.8827 197.529 91.4553C198.159 94.1868 201.39 97.3336 203.942 96.7383C204.834 96.53 206.767 95.2075 205.457 91.9754C206.276 93.0694 208.396 98.7885 211.836 101.645C214.695 104.019 218.533 103.779 219.792 103.93C239.322 119.276 238.641 118.889 255.991 133.007C255.594 121.043 255.141 109.023 254.744 93.2042Z" fill="#E2A18D"/>
<path d="M205.278 69.4873C205.257 69.4873 205.237 69.4819 205.218 69.4707C204.504 69.0479 203.737 68.7261 202.938 68.514C202.276 68.3383 201.592 68.2389 200.907 68.2184C200.841 68.2165 200.79 68.1619 200.792 68.0965C200.794 68.0324 200.846 67.9817 200.91 67.9817C200.911 67.9817 200.913 67.9817 200.914 67.9817C201.618 68.0026 202.319 68.1047 202.999 68.2851C203.819 68.5028 204.606 68.8331 205.338 69.2669C205.395 69.3002 205.413 69.3729 205.38 69.4291C205.358 69.4665 205.318 69.4873 205.278 69.4873Z" fill="#363E44"/>
<path d="M202.589 76.4804C202.578 76.4804 202.568 76.4791 202.558 76.4763C201.756 76.2596 200.932 76.1546 200.105 76.1644C199.421 76.1721 198.736 76.2591 198.069 76.4229C198.006 76.4384 197.941 76.3997 197.926 76.3361C197.91 76.2726 197.949 76.2084 198.013 76.1928C198.697 76.0247 199.4 75.9354 200.103 75.9275C200.95 75.9179 201.797 76.0253 202.619 76.2475C202.682 76.2646 202.72 76.3296 202.703 76.3927C202.688 76.4457 202.641 76.4804 202.589 76.4804Z" fill="#363E44"/>
<path d="M204.754 85.1896C204.727 85.1896 204.699 85.18 204.677 85.1603C204.117 84.6716 202.937 83.8546 201.307 83.8546C201.298 83.8546 201.289 83.8546 201.28 83.8547C200.374 83.8597 199.322 84.2091 198.599 84.7448C198.546 84.7838 198.472 84.7727 198.433 84.7202C198.394 84.6676 198.405 84.5935 198.458 84.5546C199.219 83.9908 200.326 83.6231 201.278 83.6179C201.288 83.6179 201.297 83.6178 201.307 83.6178C203.015 83.6178 204.248 84.4712 204.832 84.9819C204.882 85.0249 204.887 85.0997 204.844 85.1489C204.82 85.1758 204.787 85.1896 204.754 85.1896Z" fill="#363E44"/>
<path d="M205.567 92.1635C205.548 92.1635 205.528 92.1588 205.51 92.1492L202.419 90.4803C202.361 90.4493 202.339 90.3774 202.371 90.3199C202.402 90.2623 202.474 90.2409 202.531 90.2719L205.623 91.9409C205.68 91.9719 205.702 92.0438 205.671 92.1013C205.649 92.141 205.609 92.1635 205.567 92.1635Z" fill="#363E44"/>
<path d="M145.769 100.964H74.7537V142.845H145.769V100.964Z" fill="#F7F1EB"/>
<path d="M110.261 129.057C115.883 129.057 120.441 124.499 120.441 118.877C120.441 113.255 115.883 108.698 110.261 108.698C104.639 108.698 100.082 113.255 100.082 118.877C100.082 124.499 104.639 129.057 110.261 129.057Z" fill="#E6D0BE"/>
<path d="M116.26 118.877L106.674 113.343V124.412L116.26 118.877Z" fill="white"/>
<path d="M141.185 136.297H78.1362V139.028H141.185V136.297Z" fill="#E6D0BE"/>
<path d="M203.091 134.606H170.773C166.17 134.606 162.438 130.874 162.438 126.271C162.438 121.668 166.17 117.937 170.773 117.937H203.091C207.694 117.937 211.426 121.668 211.426 126.271C211.426 130.874 207.694 134.606 203.091 134.606Z" fill="#EFBC73"/>
<path d="M38.8043 65.8555C38.8043 65.8555 64.0029 77.9985 75.6988 84.4742C91.6272 93.2934 116.967 108.976 114.173 113.155C112.977 114.944 106.964 112.006 97.964 107.475C98.1899 108.159 98.4626 110.261 97.0408 111.7C94.9366 113.83 92.648 112.741 92.4048 112.725C92.5001 112.951 93.4606 115.412 92.2934 117.076C90.9787 118.95 89.0441 119.399 87.2848 119.033C87.5041 119.6 88.1006 121.777 86.9315 123.343C85.7292 124.954 83.3043 125.763 81.4844 124.72C78.1458 122.806 68.3326 116.929 63.2082 114.651C58.0645 112.365 38.8103 105.288 38.8103 105.288L38.8043 65.8555Z" fill="#84524D"/>
<path d="M94.4212 101.931C94.3955 101.931 94.3696 101.922 94.348 101.905C94.2966 101.865 94.2878 101.79 94.3283 101.739L96.2156 99.3445C96.2562 99.2932 96.3306 99.2844 96.3819 99.3249C96.4332 99.3654 96.442 99.4399 96.4015 99.4912L94.5143 101.886C94.4909 101.915 94.4561 101.931 94.4212 101.931Z" fill="#363E44"/>
<path d="M89.6411 108.013C89.6154 108.013 89.5896 108.005 89.5679 107.987C89.5166 107.947 89.5078 107.872 89.5483 107.821L91.4355 105.427C91.476 105.376 91.5506 105.367 91.6017 105.407C91.6531 105.448 91.6618 105.522 91.6214 105.573L89.7342 107.968C89.7107 107.997 89.676 108.013 89.6411 108.013Z" fill="#363E44"/>
<path d="M84.8418 114.26C84.8161 114.26 84.7904 114.251 84.7686 114.234C84.7172 114.194 84.7085 114.119 84.7489 114.068L86.6361 111.674C86.6766 111.622 86.7511 111.613 86.8024 111.654C86.8537 111.694 86.8625 111.769 86.822 111.82L84.9348 114.215C84.9115 114.244 84.8768 114.26 84.8418 114.26Z" fill="#363E44"/>
<path d="M80.3728 119.835C80.3471 119.835 80.3213 119.827 80.2996 119.81C80.2482 119.769 80.2394 119.695 80.2799 119.643L82.1672 117.249C82.2077 117.198 82.2823 117.189 82.3335 117.229C82.3848 117.27 82.3936 117.344 82.3531 117.396L80.4659 119.79C80.4425 119.82 80.4078 119.835 80.3728 119.835Z" fill="#363E44"/>
<path d="M197.35 151.144L195.758 124.288L215.603 142.453L204.449 142.541L197.35 151.144ZM196.029 124.857L197.551 150.529L204.337 142.305L214.999 142.221L196.029 124.857Z" fill="#776E42"/>
<path d="M145.305 58.0521H74.0346V78.9739H145.305V58.0521Z" fill="#EFBC73"/>
<path d="M106.59 155.59C106.562 155.59 106.535 155.58 106.512 155.561C106.463 155.518 106.458 155.443 106.501 155.394L108.407 153.202C108.45 153.152 108.524 153.147 108.574 153.19C108.623 153.233 108.628 153.308 108.585 153.357L106.679 155.549C106.656 155.576 106.623 155.59 106.59 155.59Z" fill="#363E44"/>
<path d="M105.842 162.88C105.813 162.88 105.784 162.87 105.761 162.848C105.714 162.804 105.711 162.729 105.756 162.681L108.198 160.084C108.243 160.036 108.318 160.034 108.365 160.078C108.413 160.123 108.415 160.198 108.371 160.246L105.929 162.843C105.905 162.868 105.874 162.88 105.842 162.88Z" fill="#363E44"/>
<path d="M104.033 172.197C103.998 172.197 103.963 172.181 103.94 172.151C103.9 172.099 103.909 172.025 103.961 171.985L107.626 169.129C107.678 169.089 107.752 169.098 107.792 169.149C107.833 169.201 107.823 169.275 107.772 169.316L104.106 172.172C104.084 172.188 104.059 172.197 104.033 172.197Z" fill="#363E44"/>
<path d="M102.79 178.861C102.752 178.861 102.715 178.843 102.692 178.81C102.656 178.756 102.67 178.682 102.724 178.645L105.247 176.931C105.301 176.895 105.374 176.909 105.411 176.963C105.448 177.017 105.434 177.091 105.38 177.127L102.857 178.841C102.836 178.855 102.813 178.861 102.79 178.861Z" fill="#363E44"/>
<path d="M100.652 185.509C100.609 185.509 100.566 185.484 100.546 185.442C100.517 185.384 100.541 185.313 100.6 185.284L103.31 183.957C103.369 183.928 103.44 183.952 103.469 184.011C103.497 184.07 103.473 184.141 103.414 184.169L100.704 185.497C100.687 185.505 100.67 185.509 100.652 185.509Z" fill="#363E44"/>
<path d="M116.122 174.388C118.995 160.935 114.868 148.651 106.906 146.951C98.9439 145.251 90.1608 154.779 87.2886 168.233C84.4163 181.686 88.5425 193.97 96.5047 195.67C104.467 197.37 113.25 187.842 116.122 174.388Z" fill="#8B865C"/>
<path d="M106.896 146.952C106.87 146.947 106.844 146.946 106.818 146.942L96.4203 195.647C96.4456 195.653 96.4698 195.664 96.4956 195.669C101.08 196.648 107.125 186.536 109.997 173.083C112.869 159.63 111.481 147.931 106.896 146.952Z" fill="#776E42"/>
<path d="M92.5519 189.841C92.4974 189.841 92.4484 189.803 92.4363 189.748C91.3192 184.631 91.6263 177.256 93.2793 169.514C95.0751 161.102 98.1721 153.694 101.564 149.697C101.606 149.647 101.681 149.641 101.731 149.683C101.781 149.726 101.787 149.8 101.744 149.85C98.3769 153.819 95.2989 161.188 93.5108 169.563C91.8648 177.274 91.5574 184.612 92.6675 189.698C92.6815 189.761 92.641 189.825 92.5771 189.838C92.5687 189.84 92.5601 189.841 92.5519 189.841Z" fill="#363E44"/>
<path d="M102.378 192.165C102.353 192.165 102.328 192.158 102.307 192.141C102.255 192.102 102.244 192.028 102.284 191.976C105.389 187.869 108.229 180.797 109.881 173.058C111.723 164.429 111.864 156.039 110.248 151.162C110.227 151.1 110.261 151.033 110.323 151.012C110.385 150.992 110.452 151.025 110.473 151.088C112.101 156.002 111.963 164.44 110.113 173.108C108.454 180.879 105.598 187.986 102.473 192.118C102.449 192.149 102.414 192.165 102.378 192.165Z" fill="#363E44"/>
<path d="M93.1613 160.174C93.1255 160.174 93.0903 160.158 93.067 160.128L90.2239 156.402C90.1842 156.35 90.1942 156.276 90.2461 156.236C90.2982 156.197 90.3725 156.207 90.412 156.258L93.2552 159.984C93.2948 160.036 93.2849 160.11 93.2329 160.15C93.2116 160.166 93.1862 160.174 93.1613 160.174Z" fill="#363E44"/>
<path d="M90.8487 169.383C90.8192 169.383 90.7897 169.372 90.7669 169.35L85.8758 164.667C85.8284 164.622 85.8269 164.547 85.8721 164.5C85.9174 164.453 85.9925 164.451 86.0395 164.496L90.9306 169.179C90.978 169.224 90.9795 169.299 90.9343 169.346C90.911 169.371 90.8797 169.383 90.8487 169.383Z" fill="#363E44"/>
<path d="M89.1023 175.94C89.075 175.94 89.0477 175.931 89.0254 175.912L85.5084 172.909C85.4586 172.866 85.4527 172.792 85.4952 172.742C85.5378 172.692 85.6126 172.686 85.6622 172.729L89.1792 175.732C89.229 175.774 89.2349 175.849 89.1924 175.899C89.1688 175.926 89.1357 175.94 89.1023 175.94Z" fill="#363E44"/>
<path d="M88.9773 183.017C88.9544 183.017 88.9311 183.011 88.9107 182.997L84.8259 180.219C84.7719 180.182 84.7578 180.109 84.7945 180.054C84.8312 180 84.9052 179.986 84.9591 180.023L89.0439 182.801C89.0979 182.838 89.112 182.911 89.0753 182.966C89.0524 182.999 89.0151 183.017 88.9773 183.017Z" fill="#363E44"/>
<path d="M114.148 157.205C114.108 157.205 114.069 157.184 114.047 157.148C114.013 157.092 114.031 157.019 114.087 156.985L117.269 155.065C117.324 155.032 117.397 155.05 117.431 155.106C117.465 155.162 117.447 155.234 117.391 155.268L114.209 157.188C114.19 157.199 114.169 157.205 114.148 157.205Z" fill="#363E44"/>
<path d="M112.469 173.999C112.42 173.999 112.374 173.968 112.357 173.92C112.335 173.858 112.367 173.791 112.429 173.769L118.806 171.492C118.867 171.47 118.935 171.502 118.957 171.563C118.979 171.625 118.947 171.693 118.885 171.715L112.508 173.992C112.495 173.996 112.482 173.999 112.469 173.999Z" fill="#363E44"/>
<path d="M109.612 185.703C109.556 185.703 109.506 185.663 109.496 185.606C109.484 185.541 109.527 185.48 109.592 185.468L114.455 184.601C114.521 184.589 114.581 184.632 114.592 184.696C114.604 184.761 114.561 184.822 114.496 184.834L109.633 185.701C109.626 185.702 109.619 185.703 109.612 185.703Z" fill="#363E44"/>
<path d="M105.842 162.88C105.813 162.88 105.784 162.87 105.761 162.848C105.714 162.804 105.711 162.729 105.756 162.681L108.198 160.084C108.243 160.036 108.318 160.034 108.365 160.078C108.413 160.123 108.415 160.198 108.371 160.246L105.929 162.843C105.905 162.868 105.874 162.88 105.842 162.88Z" fill="#363E44"/>
<path d="M102.79 178.861C102.752 178.861 102.715 178.843 102.692 178.81C102.656 178.756 102.67 178.682 102.724 178.645L105.247 176.931C105.301 176.895 105.374 176.909 105.411 176.963C105.448 177.017 105.434 177.091 105.38 177.127L102.857 178.841C102.836 178.855 102.813 178.861 102.79 178.861Z" fill="#363E44"/>
<path d="M103.338 154.896C103.287 154.896 103.24 154.863 103.224 154.812L102.379 152.033C102.36 151.97 102.396 151.904 102.458 151.885C102.521 151.865 102.587 151.901 102.606 151.964L103.451 154.743C103.47 154.805 103.435 154.872 103.372 154.891C103.361 154.894 103.349 154.896 103.338 154.896Z" fill="#363E44"/>
<path d="M98.8899 171.098C98.8476 171.098 98.8066 171.076 98.7853 171.036L96.6054 166.932C96.5746 166.874 96.5967 166.802 96.6544 166.772C96.7121 166.741 96.7837 166.763 96.8145 166.821L98.9944 170.924C99.0252 170.982 99.0031 171.054 98.9454 171.085C98.9276 171.094 98.9086 171.098 98.8899 171.098Z" fill="#363E44"/>
<path d="M96.5403 184.631C96.5063 184.631 96.4727 184.616 96.4491 184.588L94.5172 182.27C94.4753 182.22 94.4821 182.145 94.5323 182.103C94.5828 182.061 94.6572 182.068 94.6992 182.118L96.6311 184.436C96.673 184.487 96.6661 184.561 96.6159 184.603C96.5938 184.622 96.567 184.631 96.5403 184.631Z" fill="#363E44"/>
<path d="M80.8673 166.761C80.8632 166.761 80.859 166.761 80.8549 166.761C80.7898 166.754 80.7426 166.696 80.7495 166.631L80.9895 164.352C80.9964 164.287 81.0551 164.24 81.1196 164.246C81.1848 164.253 81.2319 164.311 81.225 164.377L80.985 166.655C80.9785 166.716 80.9272 166.761 80.8673 166.761Z" fill="#363E44"/>
<path d="M83.6829 171.811C83.6772 171.811 83.6715 171.811 83.6657 171.81C83.6011 171.801 83.5562 171.74 83.5655 171.676L83.9685 168.892C83.9776 168.828 84.0376 168.783 84.1026 168.792C84.1672 168.801 84.2121 168.861 84.2028 168.926L83.7998 171.71C83.7914 171.769 83.7409 171.811 83.6829 171.811Z" fill="#363E44"/>
<path d="M86.729 178.65C86.7175 178.65 86.7057 178.648 86.6941 178.645C86.6317 178.626 86.5966 178.56 86.6158 178.497L87.6925 174.993C87.7117 174.931 87.778 174.895 87.8405 174.914C87.9029 174.934 87.938 175 87.9189 175.062L86.8421 178.567C86.8265 178.617 86.7795 178.65 86.729 178.65Z" fill="#363E44"/>
<path d="M88.9411 183.52C88.9272 183.52 88.913 183.517 88.8991 183.512C88.8379 183.489 88.8073 183.42 88.8306 183.359L89.6856 181.11C89.7087 181.049 89.7772 181.018 89.8384 181.042C89.8996 181.065 89.9301 181.133 89.9069 181.194L89.0518 183.443C89.034 183.491 88.989 183.52 88.9411 183.52Z" fill="#363E44"/>
<path d="M90.5669 188.783C90.5476 188.783 90.5279 188.778 90.5098 188.768C90.4526 188.736 90.4318 188.664 90.4634 188.607L91.6143 186.523C91.6458 186.466 91.7177 186.445 91.775 186.477C91.8322 186.508 91.8531 186.58 91.8215 186.638L90.6706 188.722C90.6491 188.761 90.6086 188.783 90.5669 188.783Z" fill="#363E44"/>
<path d="M92.5415 197.192C98.4561 194.688 99.8208 184.557 95.5895 174.563C91.3583 164.569 83.1335 158.498 77.2189 161.002C71.3042 163.506 69.9396 173.638 74.1708 183.632C78.402 193.625 86.6269 199.697 92.5415 197.192Z" fill="#776E42"/>
<path d="M77.2104 160.999C77.1912 161.007 77.174 161.019 77.1554 161.027L92.4732 197.208C92.4922 197.2 92.5127 197.196 92.5319 197.188C95.9374 195.746 95.2682 186.476 91.0373 176.483C86.8064 166.489 80.616 159.557 77.2104 160.999Z" fill="#8B865C"/>
<path d="M87.2926 195.248C87.2639 195.248 87.2352 195.238 87.2124 195.217C84.1726 192.413 81.0321 187.505 78.5959 181.75C75.9489 175.498 74.5977 169.305 74.9815 165.183C74.9877 165.118 75.0462 165.07 75.1105 165.076C75.1756 165.082 75.2234 165.14 75.2174 165.205C74.837 169.289 76.1815 175.44 78.814 181.658C81.2376 187.382 84.3572 192.261 87.3729 195.042C87.421 195.087 87.4241 195.162 87.3798 195.21C87.3565 195.235 87.3246 195.248 87.2926 195.248Z" fill="#363E44"/>
<path d="M94.6944 192.304C94.6929 192.304 94.6915 192.304 94.69 192.304C94.6246 192.301 94.5737 192.247 94.576 192.181C94.7244 188.126 93.3607 182.275 90.9281 176.529C88.2158 170.123 84.5134 164.641 81.266 162.223C81.2136 162.184 81.2027 162.11 81.2418 162.058C81.2808 162.005 81.355 161.994 81.4076 162.033C84.6867 164.475 88.4184 169.994 91.1462 176.437C93.5915 182.213 94.9621 188.102 94.8126 192.19C94.8103 192.254 94.7578 192.304 94.6944 192.304Z" fill="#363E44"/>
<path d="M73.13 170.038C73.1164 170.038 73.1027 170.036 73.089 170.031L70.3379 169.018C70.2766 168.996 70.2452 168.928 70.2677 168.866C70.2903 168.805 70.3588 168.773 70.4197 168.796L73.1708 169.809C73.2322 169.831 73.2636 169.899 73.2411 169.961C73.2235 170.008 73.1783 170.038 73.13 170.038Z" fill="#363E44"/>
<path d="M76.9355 182.797C76.9295 182.797 76.9234 182.797 76.9174 182.796L71.6378 181.983C71.5732 181.973 71.5289 181.912 71.5388 181.848C71.5488 181.783 71.6097 181.739 71.6739 181.749L76.9535 182.562C77.0181 182.572 77.0624 182.632 77.0525 182.697C77.0434 182.756 76.9929 182.797 76.9355 182.797Z" fill="#363E44"/>
<path d="M77.9982 192.508C77.9336 192.508 77.8808 192.456 77.8798 192.391C77.8789 192.326 77.9314 192.272 77.9966 192.271L81.8934 192.218C81.894 192.218 81.8946 192.218 81.895 192.218C81.9597 192.218 82.0125 192.27 82.0134 192.335C82.0144 192.4 81.9619 192.454 81.8967 192.455L77.9999 192.508C77.9993 192.508 77.9987 192.508 77.9982 192.508Z" fill="#363E44"/>
<path d="M89.8308 169.209C89.813 169.209 89.795 169.205 89.7782 169.197C89.7197 169.168 89.6958 169.097 89.7249 169.038L91.3718 165.728C91.4009 165.669 91.4719 165.646 91.5305 165.675C91.589 165.704 91.613 165.775 91.5838 165.833L89.937 169.144C89.9163 169.185 89.8744 169.209 89.8308 169.209Z" fill="#363E44"/>
<path d="M95.3261 180.817C95.3002 180.817 95.2742 180.809 95.2523 180.792C95.2012 180.751 95.1929 180.676 95.2337 180.625L97.5103 177.774C97.5512 177.723 97.6257 177.715 97.6767 177.756C97.7278 177.796 97.7361 177.871 97.6953 177.922L95.4187 180.773C95.3954 180.802 95.3609 180.817 95.3261 180.817Z" fill="#363E44"/>
<path d="M80.8673 166.761C80.8632 166.761 80.859 166.761 80.8549 166.761C80.7898 166.754 80.7426 166.696 80.7495 166.631L80.9895 164.352C80.9964 164.287 81.0551 164.24 81.1196 164.246C81.1848 164.253 81.2319 164.311 81.225 164.377L80.985 166.655C80.9785 166.716 80.9272 166.761 80.8673 166.761Z" fill="#363E44"/>
<path d="M86.729 178.65C86.7175 178.65 86.7057 178.648 86.6941 178.645C86.6317 178.626 86.5966 178.56 86.6158 178.497L87.6925 174.993C87.7117 174.931 87.778 174.895 87.8405 174.914C87.9029 174.934 87.938 175 87.9189 175.062L86.8421 178.567C86.8265 178.617 86.7795 178.65 86.729 178.65Z" fill="#363E44"/>
<path d="M90.5669 188.783C90.5476 188.783 90.5279 188.778 90.5098 188.768C90.4526 188.736 90.4318 188.664 90.4634 188.607L91.6143 186.523C91.6458 186.466 91.7177 186.445 91.775 186.477C91.8322 186.508 91.8531 186.58 91.8215 186.638L90.6706 188.722C90.6491 188.761 90.6086 188.783 90.5669 188.783Z" fill="#363E44"/>
<path d="M80.1173 173.321C80.0932 173.321 80.069 173.313 80.048 173.298L77.769 171.65C77.7161 171.612 77.7041 171.538 77.7424 171.485C77.7805 171.432 77.8546 171.42 77.9077 171.458L80.1866 173.106C80.2396 173.145 80.2515 173.219 80.2133 173.272C80.1902 173.303 80.1541 173.321 80.1173 173.321Z" fill="#363E44"/>
<path d="M84.865 185.246C84.8492 185.246 84.8334 185.243 84.8181 185.236L82.608 184.285C82.548 184.259 82.5203 184.189 82.5461 184.129C82.572 184.069 82.6419 184.041 82.7017 184.067L84.9117 185.018C84.9718 185.044 84.9995 185.114 84.9737 185.174C84.9545 185.219 84.9107 185.246 84.865 185.246Z" fill="#363E44"/>
<path d="M110.58 216.212H76.2324L72.307 189.042H114.505L110.58 216.212Z" fill="#363E44"/>
<path d="M112.524 141.371C112.524 145.524 109.841 148.891 106.53 148.891C103.22 148.891 100.536 145.524 100.536 141.371L103.043 142.788L104.896 140.935L106.748 142.461L108.819 140.826L110.345 142.352L112.524 141.371Z" fill="#EFBC73"/>
</svg>
