<svg width="225" height="25" viewBox="0 0 225 25" fill="none" xmlns="http://www.w3.org/2000/svg">
<path d="M4.56883 3.06V24H0.368828V3.06H4.56883ZM22.4284 7.14C24.4084 7.14 26.0084 7.77 27.2284 9.03C28.4484 10.27 29.0584 12.01 29.0584 14.25V24H24.8584V14.82C24.8584 13.5 24.5284 12.49 23.8684 11.79C23.2084 11.07 22.3084 10.71 21.1684 10.71C20.0084 10.71 19.0884 11.07 18.4084 11.79C17.7484 12.49 17.4184 13.5 17.4184 14.82V24H13.2184V7.38H17.4184V9.45C17.9784 8.73 18.6884 8.17 19.5484 7.77C20.4284 7.35 21.3884 7.14 22.4284 7.14ZM43.9124 24.27C42.5524 24.27 41.3324 24.03 40.2524 23.55C39.1724 23.05 38.3124 22.38 37.6724 21.54C37.0524 20.7 36.7124 19.77 36.6524 18.75H40.8824C40.9624 19.39 41.2724 19.92 41.8124 20.34C42.3724 20.76 43.0624 20.97 43.8824 20.97C44.6824 20.97 45.3024 20.81 45.7424 20.49C46.2024 20.17 46.4324 19.76 46.4324 19.26C46.4324 18.72 46.1524 18.32 45.5924 18.06C45.0524 17.78 44.1824 17.48 42.9824 17.16C41.7424 16.86 40.7224 16.55 39.9224 16.23C39.1424 15.91 38.4624 15.42 37.8824 14.76C37.3224 14.1 37.0424 13.21 37.0424 12.09C37.0424 11.17 37.3024 10.33 37.8224 9.57C38.3624 8.81 39.1224 8.21 40.1024 7.77C41.1024 7.33 42.2724 7.11 43.6124 7.11C45.5924 7.11 47.1724 7.61 48.3524 8.61C49.5324 9.59 50.1824 10.92 50.3024 12.6H46.2824C46.2224 11.94 45.9424 11.42 45.4424 11.04C44.9624 10.64 44.3124 10.44 43.4924 10.44C42.7324 10.44 42.1424 10.58 41.7224 10.86C41.3224 11.14 41.1224 11.53 41.1224 12.03C41.1224 12.59 41.4024 13.02 41.9624 13.32C42.5224 13.6 43.3924 13.89 44.5724 14.19C45.7724 14.49 46.7624 14.8 47.5424 15.12C48.3224 15.44 48.9924 15.94 49.5524 16.62C50.1324 17.28 50.4324 18.16 50.4524 19.26C50.4524 20.22 50.1824 21.08 49.6424 21.84C49.1224 22.6 48.3624 23.2 47.3624 23.64C46.3824 24.06 45.2324 24.27 43.9124 24.27ZM63.2901 10.83V18.87C63.2901 19.43 63.4201 19.84 63.6801 20.1C63.9601 20.34 64.4201 20.46 65.0601 20.46H67.0101V24H64.3701C60.8301 24 59.0601 22.28 59.0601 18.84V10.83H57.0801V7.38H59.0601V3.27H63.2901V7.38H67.0101V10.83H63.2901ZM73.4509 15.63C73.4509 13.95 73.7809 12.46 74.4409 11.16C75.1209 9.86 76.0309 8.86 77.1709 8.16C78.3309 7.46 79.6209 7.11 81.0409 7.11C82.2809 7.11 83.3609 7.36 84.2809 7.86C85.2209 8.36 85.9709 8.99 86.5309 9.75V7.38H90.7609V24H86.5309V21.57C85.9909 22.35 85.2409 23 84.2809 23.52C83.3409 24.02 82.2509 24.27 81.0109 24.27C79.6109 24.27 78.3309 23.91 77.1709 23.19C76.0309 22.47 75.1209 21.46 74.4409 20.16C73.7809 18.84 73.4509 17.33 73.4509 15.63ZM86.5309 15.69C86.5309 14.67 86.3309 13.8 85.9309 13.08C85.5309 12.34 84.9909 11.78 84.3109 11.4C83.6309 11 82.9009 10.8 82.1209 10.8C81.3409 10.8 80.6209 10.99 79.9609 11.37C79.3009 11.75 78.7609 12.31 78.3409 13.05C77.9409 13.77 77.7409 14.63 77.7409 15.63C77.7409 16.63 77.9409 17.51 78.3409 18.27C78.7609 19.01 79.3009 19.58 79.9609 19.98C80.6409 20.38 81.3609 20.58 82.1209 20.58C82.9009 20.58 83.6309 20.39 84.3109 20.01C84.9909 19.61 85.5309 19.05 85.9309 18.33C86.3309 17.59 86.5309 16.71 86.5309 15.69ZM113.943 9.36C113.463 8.48 112.803 7.81 111.963 7.35C111.123 6.89 110.143 6.66 109.023 6.66C107.783 6.66 106.683 6.94 105.723 7.5C104.763 8.06 104.013 8.86 103.473 9.9C102.933 10.94 102.663 12.14 102.663 13.5C102.663 14.9 102.933 16.12 103.473 17.16C104.033 18.2 104.803 19 105.783 19.56C106.763 20.12 107.903 20.4 109.203 20.4C110.803 20.4 112.113 19.98 113.133 19.14C114.153 18.28 114.823 17.09 115.143 15.57H107.943V12.36H119.283V16.02C119.003 17.48 118.403 18.83 117.483 20.07C116.563 21.31 115.373 22.31 113.913 23.07C112.473 23.81 110.853 24.18 109.053 24.18C107.033 24.18 105.203 23.73 103.563 22.83C101.943 21.91 100.663 20.64 99.723 19.02C98.803 17.4 98.343 15.56 98.343 13.5C98.343 11.44 98.803 9.6 99.723 7.98C100.663 6.34 101.943 5.07 103.563 4.17C105.203 3.25 107.023 2.79 109.023 2.79C111.383 2.79 113.433 3.37 115.173 4.53C116.913 5.67 118.113 7.28 118.773 9.36H113.943ZM142.34 15.33C142.34 15.93 142.3 16.47 142.22 16.95H130.07C130.17 18.15 130.59 19.09 131.33 19.77C132.07 20.45 132.98 20.79 134.06 20.79C135.62 20.79 136.73 20.12 137.39 18.78H141.92C141.44 20.38 140.52 21.7 139.16 22.74C137.8 23.76 136.13 24.27 134.15 24.27C132.55 24.27 131.11 23.92 129.83 23.22C128.57 22.5 127.58 21.49 126.86 20.19C126.16 18.89 125.81 17.39 125.81 15.69C125.81 13.97 126.16 12.46 126.86 11.16C127.56 9.86 128.54 8.86 129.8 8.16C131.06 7.46 132.51 7.11 134.15 7.11C135.73 7.11 137.14 7.45 138.38 8.13C139.64 8.81 140.61 9.78 141.29 11.04C141.99 12.28 142.34 13.71 142.34 15.33ZM137.99 14.13C137.97 13.05 137.58 12.19 136.82 11.55C136.06 10.89 135.13 10.56 134.03 10.56C132.99 10.56 132.11 10.88 131.39 11.52C130.69 12.14 130.26 13.01 130.1 14.13H137.99ZM159.116 7.14C161.096 7.14 162.696 7.77 163.916 9.03C165.136 10.27 165.746 12.01 165.746 14.25V24H161.546V14.82C161.546 13.5 161.216 12.49 160.556 11.79C159.896 11.07 158.996 10.71 157.856 10.71C156.696 10.71 155.776 11.07 155.096 11.79C154.436 12.49 154.106 13.5 154.106 14.82V24H149.906V7.38H154.106V9.45C154.666 8.73 155.376 8.17 156.236 7.77C157.116 7.35 158.076 7.14 159.116 7.14ZM176.37 5.4C175.63 5.4 175.01 5.17 174.51 4.71C174.03 4.23 173.79 3.64 173.79 2.94C173.79 2.24 174.03 1.66 174.51 1.2C175.01 0.719999 175.63 0.479999 176.37 0.479999C177.11 0.479999 177.72 0.719999 178.2 1.2C178.7 1.66 178.95 2.24 178.95 2.94C178.95 3.64 178.7 4.23 178.2 4.71C177.72 5.17 177.11 5.4 176.37 5.4ZM178.44 7.38V24H174.24V7.38H178.44ZM202.78 7.38V24H198.55V21.9C198.01 22.62 197.3 23.19 196.42 23.61C195.56 24.01 194.62 24.21 193.6 24.21C192.3 24.21 191.15 23.94 190.15 23.4C189.15 22.84 188.36 22.03 187.78 20.97C187.22 19.89 186.94 18.61 186.94 17.13V7.38H191.14V16.53C191.14 17.85 191.47 18.87 192.13 19.59C192.79 20.29 193.69 20.64 194.83 20.64C195.99 20.64 196.9 20.29 197.56 19.59C198.22 18.87 198.55 17.85 198.55 16.53V7.38H202.78ZM217.784 24.27C216.424 24.27 215.204 24.03 214.124 23.55C213.044 23.05 212.184 22.38 211.544 21.54C210.924 20.7 210.584 19.77 210.524 18.75H214.754C214.834 19.39 215.144 19.92 215.684 20.34C216.244 20.76 216.934 20.97 217.754 20.97C218.554 20.97 219.174 20.81 219.614 20.49C220.074 20.17 220.304 19.76 220.304 19.26C220.304 18.72 220.024 18.32 219.464 18.06C218.924 17.78 218.054 17.48 216.854 17.16C215.614 16.86 214.594 16.55 213.794 16.23C213.014 15.91 212.334 15.42 211.754 14.76C211.194 14.1 210.914 13.21 210.914 12.09C210.914 11.17 211.174 10.33 211.694 9.57C212.234 8.81 212.994 8.21 213.974 7.77C214.974 7.33 216.144 7.11 217.484 7.11C219.464 7.11 221.044 7.61 222.224 8.61C223.404 9.59 224.054 10.92 224.174 12.6H220.154C220.094 11.94 219.814 11.42 219.314 11.04C218.834 10.64 218.184 10.44 217.364 10.44C216.604 10.44 216.014 10.58 215.594 10.86C215.194 11.14 214.994 11.53 214.994 12.03C214.994 12.59 215.274 13.02 215.834 13.32C216.394 13.6 217.264 13.89 218.444 14.19C219.644 14.49 220.634 14.8 221.414 15.12C222.194 15.44 222.864 15.94 223.424 16.62C224.004 17.28 224.304 18.16 224.324 19.26C224.324 20.22 224.054 21.08 223.514 21.84C222.994 22.6 222.234 23.2 221.234 23.64C220.254 24.06 219.104 24.27 217.784 24.27Z" fill="url(#paint0_linear_73_696)"/>
<defs>
<linearGradient id="paint0_linear_73_696" x1="-18" y1="11.5" x2="242" y2="11.5" gradientUnits="userSpaceOnUse">
<stop stop-color="#2190FF"/>
<stop offset="1" stop-color="#FE9A77"/>
</linearGradient>
</defs>
</svg>
