<svg width="247" height="247" viewBox="0 0 247 247" fill="none" xmlns="http://www.w3.org/2000/svg">
<path d="M168.044 218.115H82.6541C77.7472 218.115 73.7695 214.137 73.7695 209.23V43.8795C73.7695 38.9726 77.7472 34.9949 82.6541 34.9949H168.044C172.951 34.9949 176.929 38.9726 176.929 43.8795V209.23C176.929 214.137 172.951 218.115 168.044 218.115Z" fill="#535366"/>
<path d="M87.2424 40.337C87.2424 41.5918 86.2252 42.6084 84.971 42.6084C83.7162 42.6084 82.6996 41.5913 82.6996 40.337C82.6996 39.0823 83.7167 38.0651 84.971 38.0651C86.2252 38.0651 87.2424 39.0823 87.2424 40.337Z" fill="#30303D"/>
<path d="M141.833 41.6215H110.044C109.335 41.6215 108.76 41.0465 108.76 40.3371C108.76 39.6277 109.335 39.0522 110.044 39.0522H141.833C142.543 39.0522 143.118 39.6272 143.118 40.3371C143.118 41.0465 142.543 41.6215 141.833 41.6215Z" fill="#30303D"/>
<path d="M164.791 210.628H85.9071C82.5958 210.628 79.9114 207.943 79.9114 204.632V51.0974C79.9114 47.7861 82.5958 45.1017 85.9071 45.1017H164.792C168.103 45.1017 170.788 47.7861 170.788 51.0974V204.632C170.788 207.943 168.103 210.628 164.791 210.628Z" fill="#E8F3F9"/>
<path opacity="0.5" d="M102.084 100.994C103.035 96.9378 100.518 92.8787 96.4618 91.9275C92.4057 90.9764 88.3465 93.4935 87.3954 97.5496C86.4443 101.606 88.9614 105.665 93.0175 106.616C97.0736 107.567 101.133 105.05 102.084 100.994Z" fill="#918AC1"/>
<path opacity="0.5" d="M162.327 91.8618H106.009V96.3942H162.327V91.8618Z" fill="#918AC1"/>
<path d="M139.911 101.33H107.04C106.471 101.33 106.009 100.868 106.009 100.299C106.009 99.7292 106.471 99.2678 107.04 99.2678H139.911C140.48 99.2678 140.942 99.7297 140.942 100.299C140.942 100.868 140.48 101.33 139.911 101.33Z" fill="white"/>
<path d="M130.553 110.462H107.04C106.471 110.462 106.009 110 106.009 109.431C106.009 108.861 106.471 108.399 107.04 108.399H130.553C131.123 108.399 131.585 108.861 131.585 109.431C131.585 110 131.123 110.462 130.553 110.462Z" fill="white"/>
<path d="M153.451 106.266H107.04C106.471 106.266 106.009 105.804 106.009 105.235C106.009 104.666 106.471 104.204 107.04 104.204H153.451C154.021 104.204 154.482 104.666 154.482 105.235C154.482 105.804 154.021 106.266 153.451 106.266Z" fill="white"/>
<path opacity="0.5" d="M162.327 118.89H88.5821V151.92H162.327V118.89Z" fill="#918AC1"/>
<path d="M143.636 159.297H160.922C161.699 159.297 162.327 158.668 162.327 157.892C162.327 157.117 161.699 156.487 160.922 156.487H143.636C142.861 156.487 142.231 157.116 142.231 157.892C142.231 158.668 142.86 159.297 143.636 159.297Z" fill="white"/>
<path d="M121.231 159.297H138.517C139.292 159.297 139.921 158.668 139.921 157.892C139.921 157.117 139.292 156.487 138.517 156.487H121.231C120.455 156.487 119.826 157.116 119.826 157.892C119.826 158.668 120.455 159.297 121.231 159.297Z" fill="white"/>
<path d="M108.759 164.18H160.922C161.699 164.18 162.327 163.551 162.327 162.775C162.327 162 161.699 161.37 160.922 161.37H108.759C107.982 161.37 107.354 161.999 107.354 162.775C107.354 163.551 107.982 164.18 108.759 164.18Z" fill="white"/>
<path opacity="0.5" d="M79.9109 174.218V204.632C79.9109 207.943 82.5953 210.627 85.9066 210.627H164.791C168.103 210.627 170.787 207.943 170.787 204.632V174.218H79.9109Z" fill="#918AC1"/>
<path opacity="0.5" d="M164.791 45.1017H85.9068C82.5955 45.1017 79.9111 47.7861 79.9111 51.0974V53.3446H170.787V51.0974C170.787 47.7861 168.103 45.1017 164.791 45.1017Z" fill="#918AC1"/>
<g opacity="0.7">
<path d="M114.225 184.558H90.947C90.2925 184.558 89.7614 184.027 89.7614 183.372C89.7614 182.718 90.292 182.187 90.947 182.187H114.225C114.879 182.187 115.41 182.717 115.41 183.372C115.41 184.027 114.879 184.558 114.225 184.558Z" fill="white"/>
<path d="M142.692 184.558H119.414C118.76 184.558 118.229 184.027 118.229 183.372C118.229 182.718 118.759 182.187 119.414 182.187H142.692C143.346 182.187 143.878 182.717 143.878 183.372C143.878 184.027 143.347 184.558 142.692 184.558Z" fill="white"/>
<path d="M134.372 188.99H90.9469C90.2923 188.99 89.7613 188.459 89.7613 187.804C89.7613 187.149 90.2918 186.618 90.9469 186.618H134.372C135.027 186.618 135.558 187.149 135.558 187.804C135.558 188.459 135.027 188.99 134.372 188.99Z" fill="white"/>
<path d="M97.4168 193.656H90.9469C90.2923 193.656 89.7613 193.126 89.7613 192.471C89.7613 191.816 90.2918 191.285 90.9469 191.285H97.4168C98.0714 191.285 98.6024 191.816 98.6024 192.471C98.6024 193.126 98.0714 193.656 97.4168 193.656Z" fill="white"/>
<path d="M115.452 193.656H102.058C101.403 193.656 100.872 193.126 100.872 192.471C100.872 191.816 101.403 191.285 102.058 191.285H115.452C116.106 191.285 116.637 191.816 116.637 192.471C116.637 193.126 116.107 193.656 115.452 193.656Z" fill="white"/>
<path d="M150.314 193.656H120.334C119.68 193.656 119.149 193.126 119.149 192.471C119.149 191.816 119.679 191.285 120.334 191.285H150.314C150.969 191.285 151.5 191.816 151.5 192.471C151.5 193.126 150.969 193.656 150.314 193.656Z" fill="white"/>
<path d="M159.122 197.998H91.3816C90.7271 197.998 90.196 197.468 90.196 196.812C90.196 196.158 90.7266 195.627 91.3816 195.627H159.122C159.777 195.627 160.308 196.157 160.308 196.812C160.308 197.468 159.777 197.998 159.122 197.998Z" fill="white"/>
</g>
<g opacity="0.5">
<path d="M114.225 68.6793H90.947C90.2925 68.6793 89.7614 68.1487 89.7614 67.4937C89.7614 66.8392 90.292 66.3081 90.947 66.3081H114.225C114.879 66.3081 115.41 66.8387 115.41 67.4937C115.41 68.1483 114.879 68.6793 114.225 68.6793Z" fill="#918AC1"/>
<path d="M142.692 68.6793H119.414C118.76 68.6793 118.229 68.1487 118.229 67.4937C118.229 66.8392 118.759 66.3081 119.414 66.3081H142.692C143.346 66.3081 143.878 66.8387 143.878 67.4937C143.878 68.1483 143.347 68.6793 142.692 68.6793Z" fill="#918AC1"/>
<path d="M134.372 73.1105H90.9469C90.2923 73.1105 89.7613 72.5799 89.7613 71.9249C89.7613 71.2703 90.2918 70.7393 90.9469 70.7393H134.372C135.027 70.7393 135.558 71.2698 135.558 71.9249C135.558 72.5799 135.027 73.1105 134.372 73.1105Z" fill="#918AC1"/>
<path d="M97.4168 77.7778H90.9469C90.2923 77.7778 89.7613 77.2473 89.7613 76.5922C89.7613 75.9377 90.2918 75.4066 90.9469 75.4066H97.4168C98.0714 75.4066 98.6024 75.9372 98.6024 76.5922C98.6024 77.2468 98.0714 77.7778 97.4168 77.7778Z" fill="#918AC1"/>
<path d="M115.452 77.7778H102.058C101.403 77.7778 100.872 77.2473 100.872 76.5922C100.872 75.9377 101.403 75.4066 102.058 75.4066H115.452C116.106 75.4066 116.637 75.9372 116.637 76.5922C116.637 77.2468 116.107 77.7778 115.452 77.7778Z" fill="#918AC1"/>
<path d="M150.314 77.7778H120.334C119.68 77.7778 119.149 77.2473 119.149 76.5922C119.149 75.9377 119.679 75.4066 120.334 75.4066H150.314C150.969 75.4066 151.5 75.9372 151.5 76.5922C151.5 77.2468 150.969 77.7778 150.314 77.7778Z" fill="#918AC1"/>
<path d="M159.122 82.1195H91.3816C90.7271 82.1195 90.196 81.589 90.196 80.9339C90.196 80.2794 90.7266 79.7484 91.3816 79.7484H159.122C159.777 79.7484 160.308 80.2789 160.308 80.9339C160.308 81.589 159.777 82.1195 159.122 82.1195Z" fill="#918AC1"/>
</g>
<path d="M78.3632 207.324L77.6973 205.685L147.021 177.505L83.3828 135.43L129.275 96.9431L97.2182 65.6763L54.3919 100.523L53.2754 99.1508L97.3249 63.3091L130.637 95.8009L167.061 65.2549L210.125 108.948C212.257 111.112 213.381 113.976 213.29 117.012C213.2 120.049 211.906 122.84 209.648 124.872L182.74 149.09L130.548 98.184L86.3359 135.261L150.795 177.88L78.3632 207.324ZM131.91 97.0414L182.789 146.666L208.466 123.557C210.361 121.852 211.447 119.508 211.523 116.959C211.599 114.41 210.656 112.006 208.866 110.19L166.948 67.6587L131.91 97.0414Z" fill="#828BAF"/>
<path d="M161.77 169.109H136.046C134.514 169.109 133.272 170.351 133.272 171.883V185.178C133.272 186.71 134.514 187.952 136.046 187.952H143.908V192.31C143.908 193.686 145.54 194.408 146.559 193.484L152.656 187.952H161.77C163.302 187.952 164.544 186.71 164.544 185.178V171.883C164.544 170.351 163.302 169.109 161.77 169.109Z" fill="#F2405E"/>
<path d="M154.32 179.758C154.914 179.035 155.215 178.061 155.04 177.019C154.808 175.643 153.706 174.524 152.333 174.276C150.92 174.02 149.629 174.642 148.908 175.687C148.188 174.642 146.897 174.02 145.484 174.276C144.111 174.524 143.009 175.643 142.777 177.019C142.602 178.061 142.902 179.035 143.497 179.758L143.497 179.759C143.666 179.964 143.861 180.147 144.074 180.308L147.822 183.881C148.361 184.394 149.204 184.404 149.756 183.904L153.589 180.423C153.864 180.238 154.11 180.014 154.32 179.759L154.32 179.758Z" fill="white"/>
<path d="M62.2391 106.377C61.7016 103.952 60.6533 100.629 58.6665 98.0526C58.2767 97.5472 57.8237 97.1293 57.3356 96.781C58.9461 95.6043 59.9963 93.7069 59.9963 91.5599C59.9963 87.9868 57.1 85.0905 53.5269 85.0905C49.9538 85.0905 47.0575 87.9868 47.0575 91.5599C47.0575 93.7874 48.1833 95.751 49.897 96.9149C49.5319 97.195 49.1896 97.5186 48.8803 97.8901C47.3331 99.75 45.8773 102.527 45.3848 106.598C45.1901 108.208 46.4256 109.633 48.0464 109.633H59.6159C61.3301 109.633 62.6101 108.051 62.2391 106.377Z" fill="#F2405E"/>
<path d="M48.7702 99.8364H38.9055C37.6695 99.8364 36.6676 100.838 36.6676 102.074V109.836C36.6676 111.072 37.6695 112.073 38.9055 112.073H45.2193L49.0305 114.702C49.8668 115.279 51.0075 114.681 51.0075 113.664V112.073V107.661V102.073C51.008 100.838 50.0061 99.8364 48.7702 99.8364Z" fill="#7E5BB5"/>
<path d="M42.5932 110.189L40.9751 110.691C40.8132 110.583 40.6514 110.432 40.4896 110.238C40.3278 110.044 40.2469 109.774 40.2469 109.429C40.2469 108.781 40.6406 108.328 41.4281 108.07L43.2404 107.455H43.8391C44.303 107.455 44.6698 107.589 44.9395 107.859C45.2091 108.129 45.344 108.496 45.344 108.959V117.39C45.2253 117.411 45.0473 117.438 44.81 117.471C44.5835 117.514 44.3515 117.536 44.1142 117.536C43.8769 117.536 43.6611 117.519 43.467 117.487C43.2836 117.455 43.1272 117.39 42.9977 117.293C42.8683 117.196 42.7658 117.066 42.6903 116.904C42.6255 116.732 42.5932 116.511 42.5932 116.241V110.189ZM52.1171 116.597C52.0308 116.64 51.869 116.678 51.6316 116.71C51.4051 116.732 51.184 116.743 50.9682 116.743C50.5259 116.743 50.1915 116.673 49.965 116.532C49.7384 116.381 49.6252 116.068 49.6252 115.594V113.814H47.1818C47.1063 113.695 47.0416 113.539 46.9876 113.345C46.9445 113.15 46.9229 112.956 46.9229 112.762C46.9229 112.374 47.0092 112.093 47.1818 111.921C47.3544 111.737 47.5863 111.646 47.8776 111.646H49.6252V108.927C49.733 108.895 49.8949 108.862 50.1106 108.83C50.3371 108.787 50.5583 108.765 50.774 108.765C51.2055 108.765 51.5346 108.841 51.7611 108.992C51.9984 109.143 52.1171 109.461 52.1171 109.947V111.646H54.5119C54.5658 111.775 54.6198 111.937 54.6737 112.131C54.7384 112.314 54.7708 112.509 54.7708 112.714C54.7708 113.091 54.6845 113.372 54.5119 113.555C54.3393 113.728 54.1128 113.814 53.8323 113.814H52.1171V116.597Z" fill="white"/>
<path d="M184.511 151.92H198.705C199.558 151.92 200.25 151.228 200.25 150.375V139.662C200.25 138.903 199.699 138.256 198.949 138.136L194.631 137.446C193.992 137.343 193.485 136.854 193.36 136.219L192.313 130.328C192.26 130.058 192.135 129.807 191.952 129.601L191.509 129.102C190.811 128.316 189.55 128.442 189.02 129.35C188.906 129.546 188.836 129.765 188.816 129.992L188.164 137.332C188.144 137.552 188.078 137.766 187.968 137.958L186.707 140.18C186.433 140.664 185.92 140.962 185.364 140.962H184.512C183.659 140.962 182.967 141.654 182.967 142.507V150.376C182.967 151.229 183.658 151.92 184.511 151.92Z" fill="#7E5BB5"/>
<path d="M182.242 152.758H185.069C185.825 152.758 186.438 152.145 186.438 151.389V140.388C186.438 139.633 185.825 139.019 185.069 139.019H182.242C181.486 139.019 180.873 139.633 180.873 140.388V151.389C180.873 152.145 181.486 152.758 182.242 152.758Z" fill="#EFD66A"/>
<path d="M188.246 57.3603H157.056C154.159 57.3603 151.809 59.7098 151.809 62.6076V74.924V82.2198V86.1106C151.809 88.0614 154.129 89.08 155.566 87.7601L161.592 82.2203H188.246C191.144 82.2203 193.493 79.8709 193.493 76.9731V62.6081C193.492 59.7098 191.143 57.3603 188.246 57.3603Z" fill="#7E5BB5"/>
<path d="M167.005 69.7518C167.005 70.7971 166.157 71.6448 165.112 71.6448C164.067 71.6448 163.219 70.7971 163.219 69.7518C163.219 68.706 164.067 67.8588 165.112 67.8588C166.157 67.8588 167.005 68.706 167.005 69.7518Z" fill="white"/>
<path d="M173.391 71.6448C174.437 71.6448 175.284 70.7973 175.284 69.7518C175.284 68.7063 174.437 67.8588 173.391 67.8588C172.346 67.8588 171.498 68.7063 171.498 69.7518C171.498 70.7973 172.346 71.6448 173.391 71.6448Z" fill="white"/>
<path d="M181.67 71.6448C182.715 71.6448 183.563 70.7973 183.563 69.7518C183.563 68.7063 182.715 67.8588 181.67 67.8588C180.625 67.8588 179.777 68.7063 179.777 69.7518C179.777 70.7973 180.625 71.6448 181.67 71.6448Z" fill="white"/>
<path d="M106.047 76.4876C110.895 71.6401 110.895 63.7809 106.047 58.9335C101.2 54.086 93.3408 54.086 88.4933 58.9335C83.6459 63.7809 83.6459 71.6401 88.4933 76.4876C93.3408 81.335 101.2 81.335 106.047 76.4876Z" fill="#E8CE4B"/>
<path d="M93.0296 69.2267H101.515C102.401 69.2267 103.088 70.0215 102.933 70.8939C102.582 72.8635 101.374 75.8759 97.2721 75.8759C93.1699 75.8759 91.9621 72.8635 91.6113 70.8939C91.4557 70.022 92.1434 69.2267 93.0296 69.2267Z" fill="#603642"/>
<path d="M92.9219 73.9795C93.775 75.0485 95.1246 75.8759 97.2716 75.8759C99.4743 75.8759 100.837 75.0055 101.686 73.8965C100.884 73.3304 99.3963 72.5513 97.2716 72.5513C95.0402 72.5513 93.6199 73.4104 92.9219 73.9795Z" fill="#F2405E"/>
<path d="M89.699 66.4564C89.699 66.4564 90.1728 64.4201 92.3983 64.4201C94.6242 64.4201 95.1449 66.4564 95.1449 66.4564" stroke="#3F2D31" stroke-width="2.0758" stroke-miterlimit="10" stroke-linecap="round"/>
<path d="M99.3987 66.4564C99.3987 66.4564 99.8725 64.4201 102.098 64.4201C104.324 64.4201 104.845 66.4564 104.845 66.4564" stroke="#3F2D31" stroke-width="2.0758" stroke-miterlimit="10" stroke-linecap="round"/>
<path d="M122.423 168.054H53.9344C52.3181 168.054 51.0075 166.744 51.0075 165.127V127.85C51.0075 126.233 52.3176 124.923 53.9344 124.923H122.423C124.039 124.923 125.35 126.233 125.35 127.85V165.127C125.349 166.743 124.039 168.054 122.423 168.054Z" fill="#EFD66A"/>
<path d="M119.14 164.363H57.2171C56.4736 164.363 55.8709 163.761 55.8709 163.017C55.8709 162.274 56.4736 161.671 57.2171 161.671H119.139C119.883 161.671 120.486 162.274 120.486 163.017C120.486 163.761 119.883 164.363 119.14 164.363Z" fill="#798693"/>
<path d="M119.14 164.363H81.7674C81.0239 164.363 80.4212 163.761 80.4212 163.017C80.4212 162.274 81.0239 161.671 81.7674 161.671H119.14C119.883 161.671 120.486 162.274 120.486 163.017C120.486 163.761 119.883 164.363 119.14 164.363Z" fill="#F2405E"/>
<path d="M80.7942 165.123C82.0271 165.123 83.0266 164.124 83.0266 162.891C83.0266 161.658 82.0271 160.659 80.7942 160.659C79.5613 160.659 78.5618 161.658 78.5618 162.891C78.5618 164.124 79.5613 165.123 80.7942 165.123Z" fill="#E8F3F9"/>
<path d="M82.0504 162.891C82.0504 163.585 81.4878 164.147 80.7942 164.147C80.1001 164.147 79.5379 163.585 79.5379 162.891C79.5379 162.197 80.1006 161.635 80.7942 161.635C81.4878 161.635 82.0504 162.197 82.0504 162.891Z" fill="#B6C8CE"/>
<path d="M83.7503 141.526V150.272C83.7503 151.579 85.2496 152.319 86.287 151.523L91.9897 147.15C92.8127 146.518 92.8127 145.278 91.9897 144.647L86.287 140.274C85.2496 139.478 83.7503 140.218 83.7503 141.526Z" fill="#7E5BB5"/>
<path d="M126.516 47.4704H98.7565C97.5843 47.4704 96.6338 46.52 96.6338 45.3477V30.0199C96.6338 28.8476 97.5843 27.8972 98.7565 27.8972H126.516C127.688 27.8972 128.639 28.8476 128.639 30.0199V45.3477C128.639 46.52 127.689 47.4704 126.516 47.4704Z" fill="#F2405E"/>
<path d="M128.639 37.3612L124.014 31.4031C123.405 30.6181 122.211 30.6433 121.635 31.453L114.054 42.1175C113.504 42.8911 112.379 42.9558 111.744 42.2503L106.778 36.7319C106.13 36.0126 104.979 36.0966 104.442 36.9013L97.98 46.5951C97.853 46.7858 97.7769 46.9937 97.7463 47.2042C98.0481 47.3687 98.3885 47.4709 98.7565 47.4709H126.516C127.688 47.4709 128.639 46.5205 128.639 45.3482V37.3612H128.639Z" fill="#841F40"/>
<path d="M114.562 33.5722C114.562 35.0873 113.333 36.3154 111.818 36.3154C110.303 36.3154 109.075 35.0873 109.075 33.5722C109.075 32.0571 110.303 30.829 111.818 30.829C113.333 30.8295 114.562 32.0576 114.562 33.5722Z" fill="#841F40"/>
<path d="M86.2578 214.185H62.9509C61.337 214.185 60.0289 212.877 60.0289 211.263V197.999C60.0289 196.385 61.337 195.077 62.9509 195.077H86.2578C87.8717 195.077 89.1798 196.385 89.1798 197.999V211.263C89.1798 212.877 87.8717 214.185 86.2578 214.185Z" fill="#EFD66A"/>
<path opacity="0.61" d="M74.6098 202.209L60.3041 212.484C60.472 212.848 60.7131 213.166 61.0075 213.431L74.5989 203.669L88.0046 213.593C88.3233 213.354 88.587 213.052 88.7856 212.704L74.6098 202.209Z" fill="#E0A04B"/>
<path d="M60.5195 196.381L71.2956 206.372C73.1812 208.121 76.078 208.178 78.0308 206.504L89.0198 197.085C88.6345 195.922 87.5506 195.077 86.2578 195.077H62.9509C61.9362 195.078 61.0436 195.596 60.5195 196.381Z" fill="#C6923E"/>
</svg>
